<svg width="23" height="23" viewBox="0 0 23 23" fill="none" xmlns="http://www.w3.org/2000/svg">
<path opacity="0.4" d="M21.0829 7.71725V15.2827C21.0875 16.5639 20.5818 17.7943 19.6773 18.7027C18.7729 19.611 17.544 20.1227 16.2616 20.125H6.76361C5.47891 20.1272 4.24605 19.619 3.33682 18.7122C2.4276 17.8055 1.91667 16.5747 1.91667 15.2912V7.71725C1.91737 7.15363 2.01832 6.59462 2.21481 6.06629C2.90718 4.15175 4.72598 2.87574 6.76361 2.875H16.236C18.2985 2.87385 20.135 4.17898 20.8104 6.12586C20.9978 6.63524 21.0901 7.17461 21.0829 7.71725Z" fill="#9796A1"/>
<path d="M20.8105 6.13437L20.7167 6.21096C18.9535 7.58109 13.2462 12.168 13.2462 12.168C12.2537 12.9743 10.8312 12.9743 9.83882 12.168C9.83882 12.168 4.16561 7.5896 2.40231 6.21947L2.2149 6.0748C2.90442 4.1569 4.72387 2.87703 6.7637 2.875H16.2361C18.3008 2.8751 20.138 4.18413 20.8105 6.13437Z" fill="#9796A1"/>
</svg>
