<svg width="171" height="141" viewBox="0 0 171 141" fill="none" xmlns="http://www.w3.org/2000/svg">
<path d="M2.033 122.614C2.033 121.727 2.34967 120.98 2.983 120.372C3.61633 119.751 4.40167 119.441 5.339 119.441C6.27633 119.441 7.068 119.751 7.714 120.372C8.36 120.98 8.683 121.727 8.683 122.614C8.683 123.488 8.36 124.216 7.714 124.799C8.30933 125.166 8.77167 125.641 9.101 126.224C9.443 126.807 9.614 127.44 9.614 128.124C9.614 129.251 9.20233 130.208 8.379 130.993C7.55567 131.778 6.54233 132.171 5.339 132.171C4.123 132.171 3.10333 131.785 2.28 131.012C1.46933 130.227 1.064 129.264 1.064 128.124C1.064 127.44 1.22867 126.807 1.558 126.224C1.9 125.629 2.36233 125.154 2.945 124.799C2.337 124.216 2.033 123.488 2.033 122.614ZM2.774 128.124C2.774 128.783 3.021 129.34 3.515 129.796C4.009 130.252 4.617 130.48 5.339 130.48C6.061 130.48 6.669 130.252 7.163 129.796C7.657 129.34 7.904 128.783 7.904 128.124C7.904 127.465 7.657 126.902 7.163 126.433C6.669 125.964 6.061 125.73 5.339 125.73H5.206C4.522 125.743 3.94567 125.99 3.477 126.471C3.00833 126.94 2.774 127.491 2.774 128.124ZM4.18 121.588C3.876 121.867 3.724 122.209 3.724 122.614C3.724 123.019 3.86967 123.374 4.161 123.678C4.45233 123.969 4.81333 124.121 5.244 124.134H5.396C5.852 124.121 6.22567 123.969 6.517 123.678C6.821 123.374 6.973 123.019 6.973 122.614C6.973 122.209 6.81467 121.867 6.498 121.588C6.194 121.297 5.80767 121.151 5.339 121.151C4.883 121.151 4.49667 121.297 4.18 121.588ZM11.9229 125.825C11.9229 124.888 11.9926 124.058 12.1319 123.336C12.2713 122.601 12.4993 121.93 12.8159 121.322C13.1453 120.714 13.6139 120.252 14.2219 119.935C14.8299 119.606 15.5646 119.441 16.4259 119.441C17.2999 119.441 18.0346 119.606 18.6299 119.935C19.2379 120.252 19.7003 120.714 20.0169 121.322C20.3463 121.93 20.5743 122.595 20.7009 123.317C20.8403 124.039 20.9099 124.875 20.9099 125.825C20.9099 126.762 20.8403 127.592 20.7009 128.314C20.5743 129.023 20.3463 129.682 20.0169 130.29C19.7003 130.898 19.2379 131.367 18.6299 131.696C18.0219 132.013 17.2873 132.171 16.4259 132.171C15.7293 132.171 15.1149 132.063 14.5829 131.848C14.0636 131.62 13.6329 131.322 13.2909 130.955C12.9616 130.575 12.6893 130.113 12.4739 129.568C12.2713 129.011 12.1256 128.434 12.0369 127.839C11.9609 127.231 11.9229 126.56 11.9229 125.825ZM13.6329 125.825C13.6329 127.269 13.8356 128.409 14.2409 129.245C14.6589 130.068 15.3873 130.48 16.4259 130.48C17.4646 130.48 18.1866 130.068 18.5919 129.245C19.0099 128.409 19.2189 127.269 19.2189 125.825C19.2189 124.368 19.0099 123.228 18.5919 122.405C18.1866 121.569 17.4646 121.151 16.4259 121.151C15.3873 121.151 14.6589 121.569 14.2409 122.405C13.8356 123.228 13.6329 124.368 13.6329 125.825ZM30.7237 123.127H32.6047V124.59H30.7237V132H28.9947V124.59H27.3987V123.127H28.9947V119.783H30.7237V123.127ZM36.9581 136.313H35.1531L37.0151 131.734L33.4621 123.127H35.3051L37.9651 129.549L40.6251 123.127H42.4681L36.9581 136.313ZM45.9601 123.127V124.514C46.2514 124.02 46.6821 123.634 47.2521 123.355C47.8221 123.076 48.4238 122.937 49.0571 122.937C50.2984 122.937 51.3498 123.368 52.2111 124.229C53.0724 125.09 53.5031 126.211 53.5031 127.592C53.5031 128.96 53.0724 130.068 52.2111 130.917C51.3624 131.766 50.3111 132.19 49.0571 132.19C48.4111 132.19 47.8031 132.063 47.2331 131.81C46.6631 131.544 46.2388 131.164 45.9601 130.67V136.313H44.2311V123.127H45.9601ZM45.9791 127.611C45.9791 128.51 46.2704 129.22 46.8531 129.739C47.4358 130.246 48.1134 130.499 48.8861 130.499C49.7094 130.499 50.3934 130.233 50.9381 129.701C51.4828 129.169 51.7551 128.472 51.7551 127.611C51.7551 126.737 51.4764 126.021 50.9191 125.464C50.3744 124.907 49.6968 124.628 48.8861 124.628C48.0754 124.628 47.3851 124.9 46.8151 125.445C46.2578 125.977 45.9791 126.699 45.9791 127.611ZM56.9492 126.87H62.4592C62.3579 126.135 62.0602 125.559 61.5662 125.141C61.0849 124.71 60.4832 124.495 59.7612 124.495C59.0139 124.495 58.3806 124.71 57.8612 125.141C57.3546 125.559 57.0506 126.135 56.9492 126.87ZM64.1692 127.535C64.1692 127.864 64.1629 128.092 64.1502 128.219H56.9492C57.0506 128.954 57.3609 129.543 57.8802 129.986C58.4122 130.417 59.0582 130.632 59.8182 130.632C60.3629 130.632 60.8632 130.512 61.3192 130.271C61.7752 130.03 62.1236 129.695 62.3642 129.264C62.5289 129.327 62.7822 129.429 63.1242 129.568C63.4662 129.695 63.7069 129.783 63.8462 129.834C63.4789 130.594 62.9279 131.177 62.1932 131.582C61.4586 131.987 60.6479 132.19 59.7612 132.19C58.4692 132.19 57.3862 131.759 56.5122 130.898C55.6509 130.037 55.2202 128.916 55.2202 127.535C55.2202 126.154 55.6509 125.046 56.5122 124.21C57.3862 123.361 58.4692 122.937 59.7612 122.937C61.0406 122.937 62.0919 123.361 62.9152 124.21C63.7512 125.046 64.1692 126.154 64.1692 127.535ZM78.6364 130.898C77.7371 131.759 76.6414 132.19 75.3494 132.19C74.0574 132.19 72.9617 131.759 72.0624 130.898C71.1631 130.037 70.7134 128.916 70.7134 127.535C70.7134 126.167 71.1567 125.059 72.0434 124.21C72.9427 123.361 74.0447 122.937 75.3494 122.937C76.6541 122.937 77.7561 123.361 78.6554 124.21C79.5547 125.059 80.0044 126.167 80.0044 127.535C80.0044 128.903 79.5484 130.024 78.6364 130.898ZM73.2594 129.701C73.8294 130.246 74.5261 130.518 75.3494 130.518C76.1727 130.518 76.8631 130.246 77.4204 129.701C77.9904 129.144 78.2754 128.422 78.2754 127.535C78.2754 126.661 77.9904 125.958 77.4204 125.426C76.8631 124.894 76.1727 124.628 75.3494 124.628C74.5261 124.628 73.8294 124.894 73.2594 125.426C72.7021 125.958 72.4234 126.661 72.4234 127.535C72.4234 128.422 72.7021 129.144 73.2594 129.701ZM87.343 118.301V119.954H86.374C85.2467 119.954 84.6957 120.714 84.721 122.234V123.127H86.773V124.59H84.721V132H82.973V124.59H81.263V123.127H82.973V122.234C82.973 121.005 83.2517 120.043 83.809 119.346C84.3663 118.649 85.2213 118.301 86.374 118.301H87.343ZM94.963 123.127V124.514C95.2544 124.02 95.685 123.634 96.255 123.355C96.825 123.076 97.4267 122.937 98.06 122.937C99.3014 122.937 100.353 123.368 101.214 124.229C102.075 125.09 102.506 126.211 102.506 127.592C102.506 128.96 102.075 130.068 101.214 130.917C100.365 131.766 99.314 132.19 98.06 132.19C97.414 132.19 96.806 132.063 96.236 131.81C95.666 131.544 95.2417 131.164 94.963 130.67V136.313H93.234V123.127H94.963ZM94.982 127.611C94.982 128.51 95.2734 129.22 95.856 129.739C96.4387 130.246 97.1164 130.499 97.889 130.499C98.7124 130.499 99.3964 130.233 99.941 129.701C100.486 129.169 100.758 128.472 100.758 127.611C100.758 126.737 100.479 126.021 99.922 125.464C99.3774 124.907 98.6997 124.628 97.889 124.628C97.0784 124.628 96.388 124.9 95.818 125.445C95.2607 125.977 94.982 126.699 94.982 127.611ZM106.522 132V123.127H104.812V132H106.522ZM104.812 120.657C104.584 120.442 104.47 120.176 104.47 119.859C104.47 119.542 104.584 119.276 104.812 119.061C105.053 118.846 105.338 118.738 105.667 118.738C105.996 118.738 106.275 118.846 106.503 119.061C106.744 119.276 106.864 119.542 106.864 119.859C106.864 120.176 106.744 120.442 106.503 120.657C106.275 120.872 105.996 120.98 105.667 120.98C105.338 120.98 105.053 120.872 104.812 120.657ZM116.577 123.127V124.552L111.2 130.347H116.577V132H108.768V130.575L114.05 124.78H109.072V123.127H116.577ZM126.114 123.127V124.552L120.737 130.347H126.114V132H118.305V130.575L123.587 124.78H118.609V123.127H126.114ZM135.425 132V130.632C135.134 131.126 134.703 131.512 134.133 131.791C133.563 132.057 132.955 132.19 132.309 132.19C131.055 132.19 129.991 131.759 129.117 130.898C128.243 130.037 127.806 128.922 127.806 127.554C127.806 126.173 128.243 125.059 129.117 124.21C129.991 123.361 131.055 122.937 132.309 122.937C132.955 122.937 133.563 123.07 134.133 123.336C134.716 123.602 135.147 123.976 135.425 124.457V123.127H137.135V132H135.425ZM135.406 127.535C135.406 126.636 135.109 125.926 134.513 125.407C133.918 124.888 133.234 124.628 132.461 124.628C131.638 124.628 130.948 124.9 130.39 125.445C129.846 125.977 129.573 126.674 129.573 127.535C129.573 128.396 129.852 129.106 130.409 129.663C130.967 130.22 131.651 130.499 132.461 130.499C133.285 130.499 133.981 130.233 134.551 129.701C135.121 129.169 135.406 128.447 135.406 127.535Z" fill="#9796A1"/>
<path d="M3.645 36V4.995H23.04V10.8H10.26V17.865H20.385V23.625H10.26V36H3.645ZM41.1258 36V33.615C40.5258 34.515 39.5958 35.205 38.3358 35.685C37.1058 36.165 35.9958 36.405 35.0058 36.405C32.1858 36.405 29.6958 35.4 27.5358 33.39C25.3758 31.35 24.2958 28.71 24.2958 25.47C24.2958 22.23 25.3758 19.605 27.5358 17.595C29.6958 15.555 32.1858 14.535 35.0058 14.535C35.9958 14.535 37.0758 14.745 38.2458 15.165C39.4458 15.585 40.4058 16.305 41.1258 17.325V14.985H47.3358V36H41.1258ZM32.3508 21.915C31.3008 22.845 30.7758 24.03 30.7758 25.47C30.7758 26.91 31.3008 28.11 32.3508 29.07C33.4308 30 34.6608 30.465 36.0408 30.465C37.3908 30.465 38.5758 30.015 39.5958 29.115C40.6158 28.185 41.1258 26.97 41.1258 25.47C41.1258 23.97 40.6158 22.77 39.5958 21.87C38.5758 20.94 37.3908 20.475 36.0408 20.475C34.6608 20.475 33.4308 20.955 32.3508 21.915ZM61.2995 28.08L58.5545 27.36C57.0845 26.97 55.8695 26.49 54.9095 25.92C53.9795 25.32 53.3345 24.675 52.9745 23.985C52.6445 23.265 52.4345 22.68 52.3445 22.23C52.2545 21.75 52.2245 21.18 52.2545 20.52C52.2845 18.96 53.1095 17.58 54.7295 16.38C56.3495 15.15 58.2545 14.535 60.4445 14.535C62.8145 14.535 64.8395 15.105 66.5195 16.245C68.1995 17.385 69.0545 19.14 69.0845 21.51H63.1895C63.1595 20.28 62.3645 19.665 60.8045 19.665C60.1145 19.665 59.5595 19.815 59.1395 20.115C58.7495 20.385 58.5695 20.76 58.5995 21.24C58.6595 21.99 59.2745 22.515 60.4445 22.815L63.9995 23.76C65.5595 24.18 66.7895 24.825 67.6895 25.695C68.6195 26.565 69.1895 27.33 69.3995 27.99C69.6095 28.62 69.7145 29.25 69.7145 29.88C69.7145 31.98 68.7995 33.6 66.9695 34.74C65.1695 35.88 63.0545 36.45 60.6245 36.45C58.3145 36.45 56.2745 35.805 54.5045 34.515C52.7645 33.195 51.8795 31.425 51.8495 29.205H57.6995C57.7295 29.835 58.0445 30.405 58.6445 30.915C59.2445 31.395 59.9645 31.635 60.8045 31.635C61.5245 31.605 62.1245 31.44 62.6045 31.14C63.1145 30.81 63.3695 30.39 63.3695 29.88C63.3695 29.43 63.2045 29.07 62.8745 28.8C62.5745 28.53 62.0495 28.29 61.2995 28.08ZM82.3054 14.985H86.7154V19.935H82.3054V36H76.0954V19.935H72.2704V14.985H76.0954V6.93H82.3054V14.985Z" fill="#272D2F"/>
<path d="M4.52935 98V59.4726H28.63V66.686H12.7493V75.4651H25.3308V82.6226H12.7493V98H4.52935ZM43.7225 90.8425C45.4001 90.8425 46.798 90.302 47.9164 89.2209C49.072 88.1025 49.6498 86.6487 49.6498 84.8593C49.6498 83.1445 49.072 81.7279 47.9164 80.6095C46.7607 79.4912 45.3628 78.932 43.7225 78.932C42.0823 78.932 40.6843 79.4912 39.5287 80.6095C38.4103 81.7279 37.8512 83.1445 37.8512 84.8593C37.8512 86.6487 38.4103 88.1025 39.5287 89.2209C40.6843 90.302 42.0823 90.8425 43.7225 90.8425ZM53.3404 94.7008C50.7309 97.1985 47.525 98.4473 43.7225 98.4473C39.9201 98.4473 36.7142 97.1985 34.1047 94.7008C31.4952 92.1659 30.1904 88.8854 30.1904 84.8593C30.1904 80.8332 31.4952 77.5713 34.1047 75.0737C36.7142 72.576 39.9201 71.3272 43.7225 71.3272C47.525 71.3272 50.7309 72.576 53.3404 75.0737C55.9872 77.5713 57.3106 80.8332 57.3106 84.8593C57.3106 88.8854 55.9872 92.1659 53.3404 94.7008ZM74.8487 90.8425C76.5262 90.8425 77.9242 90.302 79.0425 89.2209C80.1982 88.1025 80.776 86.6487 80.776 84.8593C80.776 83.1445 80.1982 81.7279 79.0425 80.6095C77.8869 79.4912 76.489 78.932 74.8487 78.932C73.2084 78.932 71.8105 79.4912 70.6549 80.6095C69.5365 81.7279 68.9773 83.1445 68.9773 84.8593C68.9773 86.6487 69.5365 88.1025 70.6549 89.2209C71.8105 90.302 73.2084 90.8425 74.8487 90.8425ZM84.4666 94.7008C81.8571 97.1985 78.6511 98.4473 74.8487 98.4473C71.0463 98.4473 67.8403 97.1985 65.2308 94.7008C62.6213 92.1659 61.3166 88.8854 61.3166 84.8593C61.3166 80.8332 62.6213 77.5713 65.2308 75.0737C67.8403 72.576 71.0463 71.3272 74.8487 71.3272C78.6511 71.3272 81.8571 72.576 84.4666 75.0737C87.1134 77.5713 88.4368 80.8332 88.4368 84.8593C88.4368 88.8854 87.1134 92.1659 84.4666 94.7008ZM112.629 84.8593C112.629 82.9581 112.033 81.4483 110.84 80.3299C109.684 79.2116 108.268 78.6524 106.59 78.6524C104.912 78.6524 103.477 79.2302 102.284 80.3859C101.129 81.5415 100.551 83.0326 100.551 84.8593C100.551 86.7605 101.129 88.2889 102.284 89.4446C103.477 90.6002 104.912 91.178 106.59 91.178C108.268 91.178 109.684 90.5816 110.84 89.3886C112.033 88.1957 112.629 86.6859 112.629 84.8593ZM120.514 98H112.797V94.7568C112.163 95.9497 111.138 96.8816 109.721 97.5527C108.342 98.2237 106.814 98.5592 105.136 98.5592C101.669 98.5592 98.6869 97.3103 96.1892 94.8127C93.7289 92.2777 92.4987 89.0159 92.4987 85.0271C92.4987 80.9637 93.7289 77.6645 96.1892 75.1296C98.6869 72.5946 101.669 71.3272 105.136 71.3272C106.814 71.3272 108.342 71.6627 109.721 72.3337C111.138 73.0047 112.163 73.918 112.797 75.0737V57.6832H120.514V98Z" fill="#FE724C"/>
</svg>
