<svg width="272" height="53" viewBox="0 0 272 53" fill="none" xmlns="http://www.w3.org/2000/svg">
<path d="M18.82 14.35L22.87 1.33H27.64L20.62 22H17.17L14.26 11.14L11.41 22H7.93L0.97 1.33H5.71L9.73 14.35C10.09 13.05 11.01 9.68 12.49 4.24H16.09L18.82 14.35ZM33.6623 14.59V22H29.4923V0.37H33.6623V10.18C33.9223 9.38 34.4523 8.77 35.2523 8.35C36.0523 7.91 36.8323 7.69 37.5923 7.69C39.4123 7.69 40.8023 8.27 41.7623 9.43C42.7223 10.59 43.2023 12.24 43.2023 14.38V22H39.0323V14.53C39.0323 13.67 38.7723 12.99 38.2523 12.49C37.7323 11.99 37.1323 11.74 36.4523 11.74C35.6923 11.74 35.0323 11.97 34.4723 12.43C33.9323 12.89 33.6623 13.61 33.6623 14.59ZM57.2453 22V20.41C56.8453 21.01 56.2253 21.47 55.3853 21.79C54.5653 22.11 53.8253 22.27 53.1653 22.27C51.2853 22.27 49.6253 21.6 48.1853 20.26C46.7453 18.9 46.0253 17.14 46.0253 14.98C46.0253 12.82 46.7453 11.07 48.1853 9.73C49.6253 8.37 51.2853 7.69 53.1653 7.69C53.8253 7.69 54.5453 7.83 55.3253 8.11C56.1253 8.39 56.7653 8.87 57.2453 9.55V7.99H61.3853V22H57.2453ZM51.3953 12.61C50.6953 13.23 50.3453 14.02 50.3453 14.98C50.3453 15.94 50.6953 16.74 51.3953 17.38C52.1153 18 52.9353 18.31 53.8553 18.31C54.7553 18.31 55.5453 18.01 56.2253 17.41C56.9053 16.79 57.2453 15.98 57.2453 14.98C57.2453 13.98 56.9053 13.18 56.2253 12.58C55.5453 11.96 54.7553 11.65 53.8553 11.65C52.9353 11.65 52.1153 11.97 51.3953 12.61ZM70.6945 7.99H73.6345V11.29H70.6945V22H66.5545V11.29H64.0045V7.99H66.5545V2.62H70.6945V7.99ZM102.897 7.99L97.9766 22H94.4966L91.7366 13.09L89.0966 22H85.6166L80.5466 7.99H84.9866L87.4766 16.33L89.9366 7.99H93.5066L95.9666 16.33L98.4566 7.99H102.897ZM111.322 18.16C112.222 18.16 112.972 17.87 113.572 17.29C114.192 16.69 114.502 15.91 114.502 14.95C114.502 14.03 114.192 13.27 113.572 12.67C112.952 12.07 112.202 11.77 111.322 11.77C110.442 11.77 109.692 12.07 109.072 12.67C108.472 13.27 108.172 14.03 108.172 14.95C108.172 15.91 108.472 16.69 109.072 17.29C109.692 17.87 110.442 18.16 111.322 18.16ZM116.482 20.23C115.082 21.57 113.362 22.24 111.322 22.24C109.282 22.24 107.562 21.57 106.162 20.23C104.762 18.87 104.062 17.11 104.062 14.95C104.062 12.79 104.762 11.04 106.162 9.7C107.562 8.36 109.282 7.69 111.322 7.69C113.362 7.69 115.082 8.36 116.482 9.7C117.902 11.04 118.612 12.79 118.612 14.95C118.612 17.11 117.902 18.87 116.482 20.23ZM130.632 15.4V7.99H134.802V22H130.632V20.08C130.272 20.76 129.752 21.3 129.072 21.7C128.392 22.1 127.702 22.3 127.002 22.3C125.362 22.3 124.022 21.79 122.982 20.77C121.962 19.75 121.452 18.28 121.452 16.36V7.99H125.622V15.46C125.622 16.46 125.882 17.18 126.402 17.62C126.922 18.04 127.492 18.25 128.112 18.25C128.832 18.25 129.432 18.02 129.912 17.56C130.392 17.1 130.632 16.38 130.632 15.4ZM138.652 0.37H142.822V22H138.652V0.37ZM156.64 14.95C156.64 13.93 156.32 13.12 155.68 12.52C155.06 11.92 154.3 11.62 153.4 11.62C152.5 11.62 151.73 11.93 151.09 12.55C150.47 13.17 150.16 13.97 150.16 14.95C150.16 15.97 150.47 16.79 151.09 17.41C151.73 18.03 152.5 18.34 153.4 18.34C154.3 18.34 155.06 18.02 155.68 17.38C156.32 16.74 156.64 15.93 156.64 14.95ZM160.87 22H156.73V20.26C156.39 20.9 155.84 21.4 155.08 21.76C154.34 22.12 153.52 22.3 152.62 22.3C150.76 22.3 149.16 21.63 147.82 20.29C146.5 18.93 145.84 17.18 145.84 15.04C145.84 12.86 146.5 11.09 147.82 9.73C149.16 8.37 150.76 7.69 152.62 7.69C153.52 7.69 154.34 7.87 155.08 8.23C155.84 8.59 156.39 9.08 156.73 9.7V0.37H160.87V22ZM184.549 7.99L175.909 28.87H171.499L174.859 20.56L169.459 7.99H173.899L176.989 15.94L180.109 7.99H184.549ZM192.709 18.16C193.609 18.16 194.359 17.87 194.959 17.29C195.579 16.69 195.889 15.91 195.889 14.95C195.889 14.03 195.579 13.27 194.959 12.67C194.339 12.07 193.589 11.77 192.709 11.77C191.829 11.77 191.079 12.07 190.459 12.67C189.859 13.27 189.559 14.03 189.559 14.95C189.559 15.91 189.859 16.69 190.459 17.29C191.079 17.87 191.829 18.16 192.709 18.16ZM197.869 20.23C196.469 21.57 194.749 22.24 192.709 22.24C190.669 22.24 188.949 21.57 187.549 20.23C186.149 18.87 185.449 17.11 185.449 14.95C185.449 12.79 186.149 11.04 187.549 9.7C188.949 8.36 190.669 7.69 192.709 7.69C194.749 7.69 196.469 8.36 197.869 9.7C199.289 11.04 199.999 12.79 199.999 14.95C199.999 17.11 199.289 18.87 197.869 20.23ZM212.018 15.4V7.99H216.188V22H212.018V20.08C211.658 20.76 211.138 21.3 210.458 21.7C209.778 22.1 209.088 22.3 208.388 22.3C206.748 22.3 205.408 21.79 204.368 20.77C203.348 19.75 202.838 18.28 202.838 16.36V7.99H207.008V15.46C207.008 16.46 207.268 17.18 207.788 17.62C208.308 18.04 208.878 18.25 209.498 18.25C210.218 18.25 210.818 18.02 211.298 17.56C211.778 17.1 212.018 16.38 212.018 15.4ZM227.363 0.37H231.533V22H227.363V0.37ZM239.501 7.99V22H235.361V7.99H239.501ZM235.571 4.54C235.071 4.06 234.821 3.48 234.821 2.8C234.821 2.12 235.071 1.55 235.571 1.09C236.091 0.609999 236.711 0.37 237.431 0.37C238.131 0.37 238.731 0.609999 239.231 1.09C239.731 1.55 239.981 2.12 239.981 2.8C239.981 3.48 239.731 4.06 239.231 4.54C238.731 5.02 238.131 5.26 237.431 5.26C236.711 5.26 236.091 5.02 235.571 4.54ZM247.47 16.45V22H243.33V0.37H247.47V11.83L250.8 7.99H256.11L250.29 14.17L257.28 22H252.15L247.47 16.45ZM268.053 17.38L271.083 19.45C269.803 21.35 267.673 22.3 264.693 22.3C262.633 22.3 260.893 21.62 259.473 20.26C258.073 18.88 257.373 17.11 257.373 14.95C257.373 12.79 258.073 11.04 259.473 9.7C260.893 8.36 262.633 7.69 264.693 7.69C266.733 7.69 268.433 8.38 269.793 9.76C271.173 11.12 271.863 12.89 271.863 15.07C271.863 15.45 271.843 15.88 271.803 16.36H261.543C261.643 17.12 262.033 17.7 262.713 18.1C263.413 18.5 264.173 18.7 264.993 18.7C266.353 18.7 267.373 18.26 268.053 17.38ZM261.603 13.75H267.663C267.563 12.97 267.213 12.38 266.613 11.98C266.033 11.56 265.403 11.35 264.723 11.35C264.043 11.35 263.393 11.55 262.773 11.95C262.153 12.35 261.763 12.95 261.603 13.75ZM8.38 37.99H11.32V41.29H8.38V52H4.24V41.29H1.69V37.99H4.24V32.62H8.38V37.99ZM20.092 48.16C20.992 48.16 21.742 47.87 22.342 47.29C22.962 46.69 23.272 45.91 23.272 44.95C23.272 44.03 22.962 43.27 22.342 42.67C21.722 42.07 20.972 41.77 20.092 41.77C19.212 41.77 18.462 42.07 17.842 42.67C17.242 43.27 16.942 44.03 16.942 44.95C16.942 45.91 17.242 46.69 17.842 47.29C18.462 47.87 19.212 48.16 20.092 48.16ZM25.252 50.23C23.852 51.57 22.132 52.24 20.092 52.24C18.052 52.24 16.332 51.57 14.932 50.23C13.532 48.87 12.832 47.11 12.832 44.95C12.832 42.79 13.532 41.04 14.932 39.7C16.332 38.36 18.052 37.69 20.092 37.69C22.132 37.69 23.852 38.36 25.252 39.7C26.672 41.04 27.382 42.79 27.382 44.95C27.382 47.11 26.672 48.87 25.252 50.23ZM44.1154 48.16C45.0154 48.16 45.7654 47.87 46.3654 47.29C46.9854 46.69 47.2954 45.91 47.2954 44.95C47.2954 44.03 46.9854 43.27 46.3654 42.67C45.7454 42.07 44.9954 41.77 44.1154 41.77C43.2354 41.77 42.4854 42.07 41.8654 42.67C41.2654 43.27 40.9654 44.03 40.9654 44.95C40.9654 45.91 41.2654 46.69 41.8654 47.29C42.4854 47.87 43.2354 48.16 44.1154 48.16ZM49.2754 50.23C47.8754 51.57 46.1554 52.24 44.1154 52.24C42.0754 52.24 40.3554 51.57 38.9554 50.23C37.5554 48.87 36.8554 47.11 36.8554 44.95C36.8554 42.79 37.5554 41.04 38.9554 39.7C40.3554 38.36 42.0754 37.69 44.1154 37.69C46.1554 37.69 47.8754 38.36 49.2754 39.7C50.6954 41.04 51.4054 42.79 51.4054 44.95C51.4054 47.11 50.6954 48.87 49.2754 50.23ZM58.5646 47.11V52H54.3946V37.99H58.5646V41.38C58.9046 40.16 59.4446 39.24 60.1846 38.62C60.9446 38 61.7246 37.69 62.5246 37.69C63.4446 37.69 64.2446 37.86 64.9246 38.2L64.1746 41.95C63.5946 41.67 62.8846 41.53 62.0446 41.53C59.7246 41.53 58.5646 43.39 58.5646 47.11ZM76.8358 44.95C76.8358 43.93 76.5158 43.12 75.8758 42.52C75.2558 41.92 74.4958 41.62 73.5958 41.62C72.6958 41.62 71.9258 41.93 71.2858 42.55C70.6658 43.17 70.3558 43.97 70.3558 44.95C70.3558 45.97 70.6658 46.79 71.2858 47.41C71.9258 48.03 72.6958 48.34 73.5958 48.34C74.4958 48.34 75.2558 48.02 75.8758 47.38C76.5158 46.74 76.8358 45.93 76.8358 44.95ZM81.0658 52H76.9258V50.26C76.5858 50.9 76.0358 51.4 75.2758 51.76C74.5358 52.12 73.7158 52.3 72.8158 52.3C70.9558 52.3 69.3558 51.63 68.0158 50.29C66.6958 48.93 66.0358 47.18 66.0358 45.04C66.0358 42.86 66.6958 41.09 68.0158 39.73C69.3558 38.37 70.9558 37.69 72.8158 37.69C73.7158 37.69 74.5358 37.87 75.2758 38.23C76.0358 38.59 76.5858 39.08 76.9258 39.7V30.37H81.0658V52ZM94.7327 47.38L97.7627 49.45C96.4827 51.35 94.3527 52.3 91.3727 52.3C89.3127 52.3 87.5727 51.62 86.1527 50.26C84.7527 48.88 84.0527 47.11 84.0527 44.95C84.0527 42.79 84.7527 41.04 86.1527 39.7C87.5727 38.36 89.3127 37.69 91.3727 37.69C93.4127 37.69 95.1127 38.38 96.4727 39.76C97.8527 41.12 98.5427 42.89 98.5427 45.07C98.5427 45.45 98.5227 45.88 98.4827 46.36H88.2227C88.3227 47.12 88.7127 47.7 89.3927 48.1C90.0927 48.5 90.8527 48.7 91.6727 48.7C93.0327 48.7 94.0527 48.26 94.7327 47.38ZM88.2827 43.75H94.3427C94.2427 42.97 93.8927 42.38 93.2927 41.98C92.7127 41.56 92.0827 41.35 91.4027 41.35C90.7227 41.35 90.0727 41.55 89.4527 41.95C88.8327 42.35 88.4427 42.95 88.2827 43.75ZM105.557 47.11V52H101.387V37.99H105.557V41.38C105.897 40.16 106.437 39.24 107.177 38.62C107.937 38 108.717 37.69 109.517 37.69C110.437 37.69 111.237 37.86 111.917 38.2L111.167 41.95C110.587 41.67 109.877 41.53 109.037 41.53C106.717 41.53 105.557 43.39 105.557 47.11Z" fill="#323643"/>
</svg>

