<svg width="23" height="23" viewBox="0 0 23 23" fill="none" xmlns="http://www.w3.org/2000/svg">
<path fill-rule="evenodd" clip-rule="evenodd" d="M8.17614 2.81437C10.27 1.59776 12.8436 1.61903 14.9178 2.87007C16.9716 4.14658 18.2198 6.42479 18.2082 8.87551C18.1604 11.3101 16.8219 13.5987 15.1488 15.3679C14.1832 16.3936 13.1029 17.3006 11.9301 18.0703C11.8094 18.1402 11.6771 18.1869 11.5398 18.2083C11.4076 18.2027 11.2789 18.1636 11.1653 18.0947C9.37483 16.9381 7.80403 15.4617 6.52849 13.7367C5.46115 12.2967 4.85476 10.557 4.79167 8.75378C4.79029 6.29836 6.08232 4.03097 8.17614 2.81437ZM9.38611 9.76987C9.73832 10.6382 10.5697 11.2046 11.492 11.2046C12.0962 11.2089 12.6771 10.9669 13.1051 10.5324C13.5331 10.0979 13.7727 9.50715 13.7706 8.89165C13.7738 7.95216 13.2207 7.10334 12.3695 6.74153C11.5183 6.37972 10.537 6.57629 9.88364 7.23946C9.23031 7.90262 9.0339 8.90157 9.38611 9.76987Z" fill="#9796A1"/>
</svg>
