<svg width="14" height="12" viewBox="0 0 14 12" fill="none" xmlns="http://www.w3.org/2000/svg">
<path d="M4.99508 5.99621C5.00121 5.323 5.18206 4.66292 5.51993 4.08059C5.8578 3.49827 6.3411 3.01368 6.92251 2.67426C7.03823 2.58282 7.17567 2.52291 7.32143 2.50038C7.46718 2.47785 7.61628 2.49346 7.75421 2.54569C7.89214 2.59793 8.01417 2.685 8.10844 2.79843C8.20271 2.91186 8.26601 3.04776 8.29213 3.19292C8.43443 3.61056 8.6066 4.01827 8.74463 4.43734C8.78143 4.56314 8.85082 4.67695 8.94578 4.76729C9.04075 4.85763 9.1579 4.92127 9.28538 4.95175C9.70801 5.07341 10.1306 5.19366 10.5511 5.3203C10.6064 5.33074 10.659 5.35211 10.7059 5.38314C10.7528 5.41418 10.793 5.45426 10.8242 5.50104C10.8554 5.54783 10.877 5.60036 10.8877 5.65558C10.8983 5.7108 10.8978 5.76758 10.8862 5.82262C10.8798 5.882 10.8607 5.93932 10.8303 5.9907C10.7998 6.04207 10.7587 6.08631 10.7096 6.12043C10.6606 6.15456 10.6048 6.17777 10.546 6.1885C10.4873 6.19923 10.4269 6.19723 10.369 6.18264C9.94565 6.12359 9.52373 6.05741 9.10394 5.9763C8.78918 5.92913 8.4907 5.80574 8.23451 5.61688C7.97831 5.42802 7.77218 5.17941 7.63401 4.89269C7.56286 4.75039 7.47604 4.6145 7.38283 4.45228C7.05563 4.77111 6.83582 5.18391 6.75389 5.63336C6.70195 5.8397 6.75386 5.93787 6.95877 6.00831C7.56781 6.21677 8.17259 6.43948 8.77451 6.66858C8.8944 6.69739 9.00512 6.75594 9.09643 6.83881C9.18774 6.92168 9.25671 7.02621 9.29697 7.14275C9.33724 7.2593 9.34748 7.38411 9.32681 7.50567C9.30613 7.62722 9.25517 7.74161 9.17864 7.83829C8.87696 8.33634 8.55397 8.82157 8.23451 9.30894C8.00825 9.65402 8.00398 9.65116 8.23451 10.0012C8.24874 10.0226 8.27363 10.0446 8.27363 10.066C8.27363 10.1805 8.30848 10.3314 8.25014 10.3997C8.20722 10.442 8.15508 10.4738 8.0978 10.4925C8.04052 10.5113 7.97966 10.5165 7.92001 10.5078C7.61301 10.4209 7.31251 10.3124 7.0207 10.1834C6.96394 10.1649 6.91208 10.1338 6.86892 10.0925C6.82577 10.0513 6.79243 10.0009 6.77139 9.94498C6.75035 9.88911 6.74215 9.82921 6.74737 9.76974C6.7526 9.71026 6.77112 9.65273 6.80157 9.60137C7.02498 9.06396 7.24906 8.52655 7.4739 7.98913C7.49239 7.94431 7.50593 7.89805 7.52514 7.84682C7.04915 7.70452 6.58385 7.56649 6.12351 7.41992C5.92091 7.36369 5.72575 7.28343 5.54221 7.18086C5.3486 7.05507 5.19451 6.8771 5.0977 6.66749C5.00089 6.45789 4.96532 6.22517 4.99508 5.99621Z" fill="url(#paint0_linear_1_780)"/>
<path d="M3.90118 6.64073C3.48638 6.64571 3.07086 6.63647 2.65606 6.64501C2.48415 6.64873 2.31302 6.66947 2.14519 6.70691C1.79242 6.78144 1.46716 6.95217 1.20545 7.20019C0.94374 7.44822 0.755804 7.76385 0.662448 8.11212L0.513062 8.55965L0.42343 8.54897C0.291525 8.24172 0.242511 7.90524 0.28134 7.57314C0.320168 7.24103 0.445419 6.92492 0.644644 6.65639C0.244783 6.5703 0.0463098 6.38177 0.0391948 6.05732C0.0202216 5.21823 0.00744665 4.3789 0.000806019 3.53934C-0.00339611 3.46041 0.00886382 3.38147 0.0368498 3.30755C0.0648358 3.23363 0.107886 3.16634 0.163307 3.10998C0.218728 3.05363 0.285283 3.00943 0.358725 2.9802C0.432167 2.95098 0.51085 2.93737 0.58984 2.94025C1.46451 2.93219 2.33925 2.93219 3.21391 2.94025C3.38578 2.94018 3.55183 3.00233 3.68144 3.11519C3.81105 3.22806 3.89544 3.38403 3.91898 3.55428C4.07836 4.38341 4.23557 5.21349 4.39068 6.04451C4.41172 6.11746 4.41469 6.19443 4.39936 6.26879C4.38404 6.34315 4.35087 6.41265 4.3027 6.47133C4.25452 6.53001 4.19278 6.57609 4.12283 6.6056C4.05288 6.63511 3.97683 6.64717 3.90118 6.64073Z" fill="url(#paint1_linear_1_780)"/>
<path d="M10.7331 7.431C10.8648 7.36483 10.9181 7.3015 10.8619 7.15422C10.8219 7.03834 10.7914 6.91935 10.7709 6.79848C10.7324 6.60922 10.7965 6.47973 10.9388 6.44273C11.0946 6.40075 11.2184 6.48614 11.2703 6.67682C11.3173 6.84829 11.3592 7.02189 11.4076 7.21328C11.5806 7.20365 11.7541 7.20365 11.927 7.21328C12.3552 7.2662 12.7569 7.44891 13.0782 7.73687C13.3995 8.02484 13.625 8.40425 13.7243 8.82412C13.8227 9.24488 13.7906 9.68565 13.6323 10.0877C13.4739 10.4898 13.1967 10.834 12.8377 11.0746C12.4786 11.312 12.0555 11.4339 11.6251 11.4238C11.1947 11.4138 10.7777 11.2723 10.4301 11.0184C10.1401 10.8037 9.90981 10.5184 9.76116 10.1897C9.61252 9.86093 9.55044 9.49964 9.58081 9.14013C9.61119 8.78062 9.733 8.43485 9.93469 8.1357C10.1364 7.83655 10.4112 7.59396 10.7331 7.431ZM10.4891 9.75759C10.5996 10.0533 10.8162 10.2973 11.0967 10.442C11.3773 10.5867 11.7017 10.6217 12.0067 10.5402C12.3186 10.4536 12.5859 10.2516 12.7544 9.97524C12.9228 9.69883 12.9799 9.36868 12.9139 9.05178C12.8539 8.75706 12.6888 8.49421 12.4494 8.31214C12.21 8.13007 11.9126 8.04121 11.6126 8.06209C11.6688 8.27981 11.7193 8.49397 11.7833 8.70244C11.794 8.73872 11.8545 8.76363 11.9 8.7864C11.9739 8.81819 12.0402 8.86529 12.0946 8.92458C12.149 8.98388 12.1901 9.05403 12.2154 9.1304C12.2407 9.20678 12.2495 9.28764 12.2412 9.36766C12.233 9.44768 12.2078 9.52505 12.1675 9.59465C12.1292 9.66116 12.0779 9.71926 12.0166 9.76542C11.9553 9.81159 11.8853 9.84487 11.8108 9.86329C11.7362 9.8817 11.6588 9.88485 11.583 9.87256C11.5073 9.86026 11.4348 9.83277 11.3699 9.79174C11.303 9.74756 11.246 9.69 11.2024 9.62268C11.1588 9.55536 11.1297 9.47977 11.1168 9.40062C11.1039 9.32148 11.1075 9.24051 11.1274 9.16284C11.1474 9.08517 11.1832 9.01248 11.2326 8.94934C11.2693 8.88825 11.2831 8.81616 11.2717 8.74584C11.2369 8.55872 11.1828 8.37587 11.1294 8.17665C10.8446 8.31269 10.621 8.55033 10.5025 8.84288C10.384 9.13542 10.3793 9.46169 10.4891 9.75759Z" fill="url(#paint2_linear_1_780)"/>
<path d="M3.12249 7.20745C3.39981 7.20385 3.67505 7.2556 3.93213 7.35968C4.18921 7.46376 4.42294 7.61808 4.61965 7.81359C4.81636 8.00911 4.97216 8.2419 5.0778 8.49834C5.18344 8.75478 5.23683 9.02972 5.23491 9.30707C5.23735 9.58427 5.18493 9.85922 5.08066 10.1161C4.9764 10.3729 4.82234 10.6066 4.62738 10.8037C4.43242 11.0008 4.20044 11.1573 3.94472 11.2644C3.689 11.3714 3.41464 11.4268 3.13743 11.4273C2.86015 11.4277 2.58559 11.3733 2.32944 11.2671C2.07329 11.161 1.8406 11.0052 1.64487 10.8088C1.44913 10.6124 1.29417 10.3792 1.18889 10.1227C1.08361 9.86624 1.03011 9.59146 1.03143 9.31419C1.0301 8.75775 1.24949 8.22348 1.64148 7.82856C2.03347 7.43363 2.56605 7.21028 3.12249 7.20745ZM3.13812 10.5856C3.47396 10.5819 3.79495 10.4464 4.03183 10.2083C4.26872 9.97023 4.40257 9.64861 4.4046 9.31276C4.40218 8.9763 4.26741 8.65431 4.02949 8.41639C3.79157 8.17848 3.46963 8.04374 3.13317 8.04132C2.9668 8.04196 2.80218 8.07557 2.64888 8.14023C2.49558 8.20488 2.35665 8.2993 2.24007 8.418C2.12348 8.5367 2.03158 8.67733 1.96969 8.83177C1.90781 8.9862 1.87719 9.15137 1.87954 9.31773C1.87727 9.4839 1.9081 9.64887 1.9703 9.80297C2.0325 9.95708 2.12482 10.0972 2.2418 10.2153C2.35878 10.3333 2.49803 10.4269 2.65157 10.4905C2.80511 10.554 2.96985 10.5864 3.13604 10.5856H3.13812Z" fill="url(#paint3_linear_1_780)"/>
<path d="M10.5122 1.44271C10.0948 1.36246 9.68252 1.25721 9.27772 1.12752C9.01162 1.04855 8.86933 1.13251 8.90704 1.40714C8.94709 1.64019 8.99909 1.87101 9.06285 2.09871C9.07993 2.18749 9.12204 2.26958 9.18418 2.33525C9.24632 2.40092 9.32594 2.44748 9.41365 2.46944C9.7758 2.5662 10.1386 2.66012 10.5043 2.74194C10.6751 2.77965 10.7178 2.83728 10.609 2.981C10.5413 3.08771 10.4416 3.17029 10.3242 3.21693C10.2067 3.26358 10.0775 3.27189 9.95509 3.24069C9.50926 3.13575 9.07152 2.99902 8.64522 2.83157C8.36533 2.71369 8.12926 2.51134 7.96994 2.25278C7.81062 1.99423 7.736 1.69239 7.75655 1.38938C7.78767 1.21396 7.8341 1.04159 7.89529 0.874261C8.01275 0.599357 8.21284 0.3678 8.46782 0.21175C8.72281 0.0556997 9.02004 -0.0171061 9.31828 0.00339042C9.63923 0.0207337 9.94796 0.132182 10.206 0.323876C10.464 0.51557 10.6598 0.778988 10.769 1.08127C10.875 1.37156 10.8103 1.49038 10.5122 1.44271Z" fill="url(#paint4_linear_1_780)"/>
<path d="M12.436 6.76416C12.2584 6.71603 12.087 6.6475 11.9251 6.55995C11.7909 6.48994 11.6788 6.38403 11.6013 6.25399C11.5237 6.12396 11.4839 5.97492 11.4861 5.82355C11.4846 5.59477 11.5539 5.37113 11.6845 5.18325C11.815 4.99537 12.0005 4.85247 12.2154 4.77411C12.263 4.73711 12.3186 4.71159 12.3777 4.69955C12.4368 4.68751 12.4979 4.68925 12.5562 4.70467C12.6145 4.72009 12.6684 4.74876 12.7138 4.78844C12.7593 4.82812 12.795 4.87777 12.8181 4.93348C13.0062 5.23858 13.097 5.59369 13.0785 5.95164C13.0375 6.15316 12.9828 6.35164 12.9148 6.54573C12.9021 6.59449 12.8786 6.6398 12.8462 6.67837C12.8138 6.71695 12.7732 6.74781 12.7273 6.76872C12.6815 6.78964 12.6315 6.80008 12.5811 6.79929C12.5307 6.7985 12.4811 6.78651 12.436 6.76416Z" fill="url(#paint5_linear_1_780)"/>
<path d="M9.20065 1.25427C9.23054 1.24502 9.32022 1.32542 9.3252 1.37309C9.33018 1.42076 9.27394 1.48764 9.21559 1.60077C9.13519 1.49618 9.05836 1.43925 9.06334 1.38731C9.06832 1.33537 9.14302 1.2685 9.20065 1.25427Z" fill="url(#paint6_linear_1_780)"/>
<path d="M3.10384 8.74255C3.18197 8.73773 3.26028 8.74882 3.334 8.77514C3.40772 8.80147 3.47531 8.84246 3.53272 8.89567C3.59013 8.94889 3.63613 9.01321 3.66795 9.08473C3.69977 9.15625 3.71679 9.23347 3.71789 9.31174C3.71758 9.46343 3.65924 9.60925 3.55487 9.71932C3.45049 9.82938 3.30793 9.89535 3.15648 9.90371C3.07971 9.90588 3.00324 9.89287 2.93153 9.8654C2.85981 9.83794 2.7943 9.79658 2.73863 9.74368C2.68296 9.69078 2.63823 9.6274 2.60713 9.55719C2.57604 9.48697 2.55912 9.41129 2.55737 9.33452C2.55364 9.2596 2.56489 9.18467 2.59046 9.11415C2.61603 9.04363 2.65544 8.97893 2.70632 8.92381C2.7572 8.86869 2.81855 8.82427 2.8868 8.79314C2.95505 8.76202 3.02886 8.74483 3.10384 8.74255Z" fill="url(#paint7_linear_1_780)"/>
<defs>
<linearGradient id="paint0_linear_1_780" x1="7.94009" y1="2.49036" x2="7.94009" y2="10.5119" gradientUnits="userSpaceOnUse">
<stop stop-color="#FE724C"/>
<stop offset="1" stop-color="#FCA892"/>
</linearGradient>
<linearGradient id="paint1_linear_1_780" x1="2.20451" y1="2.9342" x2="2.20451" y2="8.55965" gradientUnits="userSpaceOnUse">
<stop stop-color="#FE724C"/>
<stop offset="1" stop-color="#FCA892"/>
</linearGradient>
<linearGradient id="paint2_linear_1_780" x1="11.6768" y1="6.43225" x2="11.6768" y2="11.4244" gradientUnits="userSpaceOnUse">
<stop stop-color="#FE724C"/>
<stop offset="1" stop-color="#FCA892"/>
</linearGradient>
<linearGradient id="paint3_linear_1_780" x1="3.1332" y1="7.20728" x2="3.1332" y2="11.4273" gradientUnits="userSpaceOnUse">
<stop stop-color="#FE724C"/>
<stop offset="1" stop-color="#FCA892"/>
</linearGradient>
<linearGradient id="paint4_linear_1_780" x1="9.28493" y1="0" x2="9.28493" y2="3.25924" gradientUnits="userSpaceOnUse">
<stop stop-color="#FE724C"/>
<stop offset="1" stop-color="#FCA892"/>
</linearGradient>
<linearGradient id="paint5_linear_1_780" x1="12.2834" y1="4.69165" x2="12.2834" y2="6.79934" gradientUnits="userSpaceOnUse">
<stop stop-color="#FE724C"/>
<stop offset="1" stop-color="#FCA892"/>
</linearGradient>
<linearGradient id="paint6_linear_1_780" x1="9.19431" y1="1.25354" x2="9.19431" y2="1.60077" gradientUnits="userSpaceOnUse">
<stop stop-color="#FE724C"/>
<stop offset="1" stop-color="#FCA892"/>
</linearGradient>
<linearGradient id="paint7_linear_1_780" x1="3.13728" y1="8.74146" x2="3.13728" y2="9.90394" gradientUnits="userSpaceOnUse">
<stop stop-color="#FE724C"/>
<stop offset="1" stop-color="#FCA892"/>
</linearGradient>
</defs>
</svg>
