<svg width="23" height="23" viewBox="0 0 23 23" fill="none" xmlns="http://www.w3.org/2000/svg">
<path fill-rule="evenodd" clip-rule="evenodd" d="M21.0799 8.02616H17.0217C15.1332 8.02948 13.6032 9.52118 13.5998 11.3625C13.5973 13.2081 15.1289 14.7064 17.0217 14.7089H21.0833V15.0021C21.0833 18.2213 19.1317 20.125 15.8291 20.125H7.17175C3.86826 20.125 1.91667 18.2213 1.91667 15.0021V7.99045C1.91667 4.77118 3.86826 2.875 7.17175 2.875H15.8257C19.1283 2.875 21.0799 4.77118 21.0799 7.99045V8.02616ZM6.45869 8.01878H11.8637H11.8671H11.8739C12.2785 8.01712 12.6056 7.69569 12.6039 7.30034C12.6022 6.90582 12.2717 6.58689 11.8671 6.58855H6.45869C6.05661 6.59021 5.73035 6.90832 5.72865 7.30117C5.72695 7.69569 6.05406 8.01712 6.45869 8.01878Z" fill="#9796A1"/>
<path opacity="0.4" d="M15.3693 11.7842C15.5698 12.6958 16.369 13.3371 17.2814 13.3204H20.3959C20.7755 13.3204 21.0835 13.006 21.0835 12.6174V10.1913C21.0827 9.80351 20.7755 9.48826 20.3959 9.48743H17.2081C16.1702 9.49076 15.3319 10.3523 15.3335 11.4139C15.3335 11.5382 15.3457 11.6625 15.3693 11.7842Z" fill="#9796A1"/>
<path d="M17.2502 12.3625C17.7794 12.3625 18.2085 11.9334 18.2085 11.4041C18.2085 10.8749 17.7794 10.4458 17.2502 10.4458C16.7209 10.4458 16.2918 10.8749 16.2918 11.4041C16.2918 11.9334 16.7209 12.3625 17.2502 12.3625Z" fill="#9796A1"/>
</svg>
