<svg width="28" height="28" viewBox="0 0 28 28" fill="none" xmlns="http://www.w3.org/2000/svg">
<path d="M22.938 13.473C22.4249 12.8713 22.0106 12.1918 21.7109 11.46C21.4856 10.8903 21.3719 10.2827 21.376 9.67004V9.44897C21.376 7.34422 20.5399 5.32569 19.0516 3.8374C17.5633 2.34911 15.5447 1.51306 13.4399 1.51306C11.3346 1.51306 9.31568 2.34935 7.82702 3.83801C6.33835 5.32668 5.50194 7.34576 5.50194 9.45105V9.67407C5.50609 10.2833 5.39303 10.8875 5.16893 11.454C4.86912 12.1877 4.45424 12.869 3.93993 13.472C3.63514 13.9809 3.43378 14.5449 3.34728 15.1317C3.26078 15.7185 3.2909 16.3167 3.4359 16.8918C3.5809 17.467 3.83789 18.008 4.19225 18.4836C4.54661 18.9593 4.99136 19.3605 5.50097 19.6641C5.50669 19.6687 5.51314 19.6724 5.52001 19.675L5.57396 19.7061C5.70579 19.7751 5.84206 19.8352 5.98192 19.886C6.03592 19.907 6.09695 19.929 6.16295 19.952C6.35291 20.0226 6.54698 20.0817 6.74401 20.129C6.78201 20.137 6.81892 20.1481 6.85692 20.1531H6.86498L7.09203 20.207C7.25103 20.243 7.42297 20.278 7.60997 20.314L7.90197 20.366C8.10197 20.4 8.32297 20.4341 8.55797 20.4661C8.79297 20.4981 9.04398 20.529 9.31298 20.557C10.6837 20.6934 12.0605 20.7601 13.438 20.757C14.238 20.757 14.96 20.745 15.615 20.717C16.76 20.667 17.692 20.577 18.447 20.469C18.77 20.423 19.062 20.369 19.322 20.322C20.0414 20.2322 20.7377 20.0087 21.375 19.663C21.8846 19.3597 22.3294 18.9588 22.6838 18.4834C23.0383 18.0079 23.2955 17.4672 23.4407 16.8922C23.5858 16.3172 23.6161 15.7193 23.5299 15.1326C23.4436 14.5458 23.2425 13.9819 22.938 13.473Z" />
<path d="M16.541 22.4401C15.552 22.0683 14.4956 21.9094 13.441 21.974C12.3864 21.9095 11.3301 22.0683 10.341 22.4401C10.1846 22.5324 10.0603 22.6705 9.98497 22.8357C9.90967 23.001 9.88704 23.1855 9.92003 23.3641C10.0857 23.8722 10.3878 24.3251 10.7934 24.6732C11.1991 25.0213 11.6925 25.2513 12.22 25.3381C13.0215 25.5553 13.8664 25.5553 14.668 25.3381C15.1955 25.2516 15.6891 25.0216 16.0947 24.6735C16.5004 24.3253 16.8025 23.8724 16.968 23.3641C17.0006 23.1848 16.977 22.9999 16.9006 22.8345C16.8242 22.6692 16.6986 22.5314 16.541 22.4401Z" fill="#D3D1D8"/>
</svg>
