<svg width="324" height="15" viewBox="0 0 324 15" fill="none" xmlns="http://www.w3.org/2000/svg">
<path d="M122.7 8.2H124.184C124.203 8.61067 124.389 8.97933 124.744 9.306C125.099 9.62333 125.551 9.782 126.102 9.782C126.643 9.782 127.068 9.656 127.376 9.404C127.684 9.152 127.866 8.83933 127.922 8.466C127.969 7.67267 127.46 7.15 126.396 6.898L125.178 6.59C123.582 6.16067 122.784 5.29733 122.784 4C122.784 3.19733 123.097 2.53933 123.722 2.026C124.347 1.50333 125.094 1.242 125.962 1.242C126.867 1.242 127.614 1.50333 128.202 2.026C128.799 2.53933 129.098 3.23 129.098 4.098H127.614C127.614 3.65933 127.46 3.30933 127.152 3.048C126.844 2.77733 126.438 2.642 125.934 2.642C125.477 2.642 125.085 2.768 124.758 3.02C124.431 3.26267 124.268 3.58 124.268 3.972C124.268 4.588 124.697 5.008 125.556 5.232L126.788 5.554C127.74 5.806 128.431 6.19333 128.86 6.716C129.289 7.22933 129.467 7.84067 129.392 8.55C129.317 9.31533 128.977 9.94067 128.37 10.426C127.773 10.902 127.017 11.14 126.102 11.14C125.122 11.14 124.31 10.8507 123.666 10.272C123.022 9.69333 122.7 9.00267 122.7 8.2ZM132.407 11V4.462H130.979V11H132.407ZM131.007 2.46C130.82 2.28267 130.727 2.068 130.727 1.816C130.727 1.564 130.82 1.34933 131.007 1.172C131.203 0.994666 131.431 0.906 131.693 0.906C131.963 0.906 132.187 0.994666 132.365 1.172C132.551 1.34 132.645 1.55467 132.645 1.816C132.645 2.07733 132.551 2.29667 132.365 2.474C132.187 2.642 131.963 2.726 131.693 2.726C131.431 2.726 131.203 2.63733 131.007 2.46ZM139.506 7.738C139.506 7.11267 139.31 6.62267 138.918 6.268C138.535 5.904 138.059 5.722 137.49 5.722C136.93 5.722 136.459 5.91333 136.076 6.296C135.693 6.66933 135.502 7.15 135.502 7.738C135.502 8.33533 135.693 8.82067 136.076 9.194C136.459 9.56733 136.93 9.754 137.49 9.754C138.013 9.754 138.479 9.572 138.89 9.208C139.301 8.83467 139.506 8.34467 139.506 7.738ZM135.516 11.826C135.684 12.162 135.941 12.428 136.286 12.624C136.631 12.82 136.986 12.918 137.35 12.918C138.806 12.918 139.534 12.0593 139.534 10.342V10.006C139.347 10.3607 139.044 10.6407 138.624 10.846C138.213 11.042 137.779 11.14 137.322 11.14C136.407 11.14 135.628 10.8273 134.984 10.202C134.34 9.57667 134.018 8.76 134.018 7.752C134.018 6.73467 134.34 5.90867 134.984 5.274C135.628 4.63933 136.407 4.322 137.322 4.322C137.779 4.322 138.213 4.42 138.624 4.616C139.035 4.812 139.338 5.08267 139.534 5.428V4.462H140.948V10.034C140.948 12.8527 139.749 14.262 137.35 14.262C136.715 14.262 136.127 14.0987 135.586 13.772C135.054 13.4547 134.634 13.0067 134.326 12.428C134.41 12.3907 134.606 12.288 134.914 12.12C135.231 11.9613 135.432 11.8633 135.516 11.826ZM144.411 7.486V11H142.969V4.462H144.411V5.442C144.588 5.08733 144.868 4.812 145.251 4.616C145.634 4.42 146.021 4.322 146.413 4.322C147.206 4.322 147.818 4.56933 148.247 5.064C148.686 5.55867 148.905 6.268 148.905 7.192V11H147.463V7.36C147.463 6.84667 147.337 6.45 147.085 6.17C146.842 5.88067 146.511 5.736 146.091 5.736C145.615 5.736 145.214 5.88067 144.887 6.17C144.57 6.45 144.411 6.88867 144.411 7.486ZM158.822 7.976V4.462H160.264V11H158.822V10.048C158.645 10.3933 158.37 10.664 157.996 10.86C157.623 11.0467 157.25 11.14 156.876 11.14C156.074 11.14 155.448 10.8927 155 10.398C154.552 9.894 154.333 9.18467 154.342 8.27V4.462H155.784V8.102C155.784 8.62467 155.91 9.03067 156.162 9.32C156.414 9.6 156.741 9.74 157.142 9.74C157.618 9.74 158.015 9.6 158.332 9.32C158.659 9.03067 158.822 8.58267 158.822 7.976ZM163.716 4.462V5.428C163.912 5.08267 164.21 4.812 164.612 4.616C165.022 4.42 165.452 4.322 165.9 4.322C166.805 4.322 167.57 4.63933 168.196 5.274C168.83 5.90867 169.148 6.73 169.148 7.738C169.148 8.75533 168.83 9.57667 168.196 10.202C167.57 10.8273 166.805 11.14 165.9 11.14C165.433 11.14 164.999 11.0467 164.598 10.86C164.206 10.6733 163.912 10.4073 163.716 10.062V14.178H162.274V4.462H163.716ZM163.73 7.766C163.73 8.37267 163.926 8.858 164.318 9.222C164.719 9.57667 165.186 9.754 165.718 9.754C166.278 9.754 166.744 9.572 167.118 9.208C167.491 8.83467 167.678 8.354 167.678 7.766C167.678 7.16867 167.486 6.67867 167.104 6.296C166.73 5.91333 166.268 5.722 165.718 5.722C165.167 5.722 164.696 5.90867 164.304 6.282C163.921 6.65533 163.73 7.15 163.73 7.766ZM183.665 4.462L181.271 11H180.081L178.415 6.366L176.819 11H175.643L173.179 4.462H174.719L176.231 8.872L177.743 4.462H179.087L180.599 8.872L182.125 4.462H183.665ZM186.356 11V4.462H184.928V11H186.356ZM184.956 2.46C184.769 2.28267 184.676 2.068 184.676 1.816C184.676 1.564 184.769 1.34933 184.956 1.172C185.152 0.994666 185.381 0.906 185.642 0.906C185.913 0.906 186.137 0.994666 186.314 1.172C186.501 1.34 186.594 1.55467 186.594 1.816C186.594 2.07733 186.501 2.29667 186.314 2.474C186.137 2.642 185.913 2.726 185.642 2.726C185.381 2.726 185.152 2.63733 184.956 2.46ZM190.333 1.984V4.462H191.719V5.652H190.333V11H188.891V5.652H187.715V4.462H188.891V1.984H190.333ZM194.518 7.486V11H193.076V0.906H194.518V5.456C194.686 5.092 194.976 4.812 195.386 4.616C195.797 4.42 196.198 4.322 196.59 4.322C197.421 4.322 198.07 4.58333 198.536 5.106C199.003 5.61933 199.236 6.34267 199.236 7.276V11H197.794V7.36C197.794 6.86533 197.654 6.47333 197.374 6.184C197.104 5.88533 196.758 5.736 196.338 5.736C195.853 5.736 195.428 5.88067 195.064 6.17C194.7 6.45933 194.518 6.898 194.518 7.486Z" fill="#5B5B5E"/>
<line x1="102.039" y1="5.5" x2="9.92258e-05" y2="5.50001" stroke="#B3B3B3" stroke-opacity="0.5"/>
<line x1="324" y1="5.5" x2="221.961" y2="5.50001" stroke="#B3B3B3" stroke-opacity="0.5"/>
</svg>
