<svg width="23" height="23" viewBox="0 0 23 23" fill="none" xmlns="http://www.w3.org/2000/svg">
<path opacity="0.4" d="M19.6251 13.144C18.7181 12.619 18.4043 11.4867 18.9166 10.5884C19.0849 10.2984 19.3294 10.0573 19.6251 9.88993C20.0745 9.63855 20.4027 9.22329 20.5373 8.73583C20.6718 8.24836 20.6017 7.72878 20.3422 7.29179L19.7038 6.17587C19.4457 5.73814 19.0193 5.41846 18.5189 5.2874C18.0184 5.15635 17.4849 5.22469 17.0362 5.47735C16.5862 5.73041 16.0515 5.79898 15.5496 5.66798C15.0476 5.53698 14.6197 5.21715 14.36 4.77884C14.1899 4.488 14.0996 4.15945 14.0976 3.82477C14.0999 3.31948 13.8954 2.83411 13.5294 2.47602C13.1634 2.11793 12.666 1.91662 12.1472 1.91663H10.8615C9.78295 1.91662 8.90723 2.76574 8.90242 3.81625C8.90608 4.49757 8.53483 5.12862 7.92948 5.47007C7.32413 5.81151 6.57739 5.81104 5.97249 5.46883C5.51969 5.20589 4.97689 5.13268 4.46776 5.26588C3.95863 5.39908 3.52655 5.72734 3.26996 6.17587L2.65774 7.2492C2.12263 8.15998 2.44303 9.32069 3.37491 9.84733C4.30886 10.3771 4.62586 11.5435 4.08334 12.454C3.91741 12.7435 3.67215 12.9824 3.37491 13.144C2.92549 13.3954 2.59727 13.8106 2.46272 14.2981C2.32816 14.7856 2.39833 15.3051 2.65774 15.7421L3.26996 16.8325C3.81392 17.7421 5.01147 18.0509 5.94625 17.5225C6.88202 17.0063 8.06997 17.3173 8.6138 18.221C8.78688 18.5106 8.87746 18.84 8.87618 19.1751C8.87616 19.6841 9.08496 20.1721 9.45616 20.5304C9.82736 20.8887 10.3302 21.0878 10.8528 21.0832H12.1385C13.2204 21.0832 14.0976 20.2289 14.0976 19.1751C14.0906 18.6669 14.2929 18.1771 14.6595 17.8153C15.026 17.4535 15.5261 17.2499 16.0479 17.2499C16.3921 17.2478 16.7305 17.3361 17.0275 17.5055C17.9626 18.0266 19.1543 17.7146 19.695 16.8069L20.3422 15.7166C20.8648 14.8122 20.5455 13.6668 19.6251 13.144Z" fill="#9796A1"/>
<path d="M11.4998 13.8959C12.823 13.8959 13.8957 12.8233 13.8957 11.5001C13.8957 10.1769 12.823 9.10425 11.4998 9.10425C10.1767 9.10425 9.104 10.1769 9.104 11.5001C9.104 12.8233 10.1767 13.8959 11.4998 13.8959Z" fill="#9796A1"/>
</svg>
