<svg width="312" height="184" viewBox="0 0 312 184" fill="none" xmlns="http://www.w3.org/2000/svg">
<path d="M32.482 33.485L39.637 10.483H48.064L35.662 47H29.567L24.426 27.814L19.391 47H13.243L0.947 10.483H9.321L16.423 33.485C17.059 31.1883 18.6843 25.2347 21.299 15.624H27.659L32.482 33.485ZM66.2877 38.838L71.6407 42.495C69.3794 45.8517 65.6164 47.53 60.3517 47.53C56.7124 47.53 53.6384 46.3287 51.1297 43.926C48.6564 41.488 47.4197 38.361 47.4197 34.545C47.4197 30.729 48.6564 27.6373 51.1297 25.27C53.6384 22.9027 56.7124 21.719 60.3517 21.719C63.9557 21.719 66.9591 22.938 69.3617 25.376C71.7997 27.7787 73.0187 30.9057 73.0187 34.757C73.0187 35.4283 72.9834 36.188 72.9127 37.036H54.7867C54.9634 38.3787 55.6524 39.4033 56.8537 40.11C58.0904 40.8167 59.4331 41.17 60.8817 41.17C63.2844 41.17 65.0864 40.3927 66.2877 38.838ZM54.8927 32.425H65.5987C65.4221 31.047 64.8037 30.0047 63.7437 29.298C62.7191 28.556 61.6061 28.185 60.4047 28.185C59.2034 28.185 58.0551 28.5383 56.9597 29.245C55.8644 29.9517 55.1754 31.0117 54.8927 32.425ZM78.0434 8.787H85.4104V47H78.0434V8.787ZM94.6643 43.873C92.0143 41.435 90.6893 38.3257 90.6893 34.545C90.6893 30.7643 92.0143 27.6903 94.6643 25.323C97.3143 22.9203 100.477 21.719 104.151 21.719C106.342 21.719 108.374 22.1783 110.246 23.097C112.154 24.0157 113.709 25.3053 114.91 26.966L108.921 31.259C107.861 29.5983 106.271 28.768 104.151 28.768C102.526 28.768 101.095 29.3157 99.8583 30.411C98.6216 31.471 98.0033 32.849 98.0033 34.545C98.0033 36.2763 98.6216 37.7073 99.8583 38.838C101.095 39.9333 102.526 40.481 104.151 40.481C106.271 40.481 107.861 39.6507 108.921 37.99L114.91 42.23C113.744 43.8907 112.207 45.198 110.299 46.152C108.427 47.0707 106.377 47.53 104.151 47.53C100.477 47.53 97.3143 46.311 94.6643 43.873ZM131.05 40.216C132.64 40.216 133.965 39.7037 135.025 38.679C136.121 37.619 136.668 36.241 136.668 34.545C136.668 32.9197 136.121 31.577 135.025 30.517C133.93 29.457 132.605 28.927 131.05 28.927C129.496 28.927 128.171 29.457 127.075 30.517C126.015 31.577 125.485 32.9197 125.485 34.545C125.485 36.241 126.015 37.619 127.075 38.679C128.171 39.7037 129.496 40.216 131.05 40.216ZM140.166 43.873C137.693 46.2403 134.654 47.424 131.05 47.424C127.446 47.424 124.408 46.2403 121.934 43.873C119.461 41.4703 118.224 38.361 118.224 34.545C118.224 30.729 119.461 27.6373 121.934 25.27C124.408 22.9027 127.446 21.719 131.05 21.719C134.654 21.719 137.693 22.9027 140.166 25.27C142.675 27.6373 143.929 30.729 143.929 34.545C143.929 38.361 142.675 41.4703 140.166 43.873ZM176.558 28.874C175.286 28.874 174.262 29.298 173.484 30.146C172.707 30.9587 172.318 32.213 172.318 33.909V47H164.951V33.644C164.916 32.16 164.51 30.994 163.732 30.146C162.955 29.298 162.001 28.874 160.87 28.874C159.634 28.874 158.609 29.2803 157.796 30.093C156.984 30.8703 156.577 32.1423 156.577 33.909V47H149.21V22.249H156.577V25.853C157.143 24.581 158.008 23.5917 159.174 22.885C160.376 22.143 161.665 21.772 163.043 21.772C166.965 21.772 169.615 23.2207 170.993 26.118C172.795 23.1853 175.269 21.719 178.413 21.719C181.417 21.719 183.749 22.673 185.409 24.581C187.105 26.489 187.953 29.2803 187.953 32.955V47H180.639V33.803C180.639 32.2483 180.251 31.047 179.473 30.199C178.696 29.3157 177.724 28.874 176.558 28.874ZM211.831 38.838L217.184 42.495C214.922 45.8517 211.159 47.53 205.895 47.53C202.255 47.53 199.181 46.3287 196.673 43.926C194.199 41.488 192.963 38.361 192.963 34.545C192.963 30.729 194.199 27.6373 196.673 25.27C199.181 22.9027 202.255 21.719 205.895 21.719C209.499 21.719 212.502 22.938 214.905 25.376C217.343 27.7787 218.562 30.9057 218.562 34.757C218.562 35.4283 218.526 36.188 218.456 37.036H200.33C200.506 38.3787 201.195 39.4033 202.397 40.11C203.633 40.8167 204.976 41.17 206.425 41.17C208.827 41.17 210.629 40.3927 211.831 38.838ZM200.436 32.425H211.142C210.965 31.047 210.347 30.0047 209.287 29.298C208.262 28.556 207.149 28.185 205.948 28.185C204.746 28.185 203.598 28.5383 202.503 29.245C201.407 29.9517 200.718 31.0117 200.436 32.425ZM245.395 22.249H250.589V28.079H245.395V47H238.081V28.079H233.576V22.249H238.081V12.762H245.395V22.249ZM266.087 40.216C267.677 40.216 269.002 39.7037 270.062 38.679C271.157 37.619 271.705 36.241 271.705 34.545C271.705 32.9197 271.157 31.577 270.062 30.517C268.966 29.457 267.641 28.927 266.087 28.927C264.532 28.927 263.207 29.457 262.112 30.517C261.052 31.577 260.522 32.9197 260.522 34.545C260.522 36.241 261.052 37.619 262.112 38.679C263.207 39.7037 264.532 40.216 266.087 40.216ZM275.203 43.873C272.729 46.2403 269.691 47.424 266.087 47.424C262.483 47.424 259.444 46.2403 256.971 43.873C254.497 41.4703 253.261 38.361 253.261 34.545C253.261 30.729 254.497 27.6373 256.971 25.27C259.444 22.9027 262.483 21.719 266.087 21.719C269.691 21.719 272.729 22.9027 275.203 25.27C277.711 27.6373 278.966 30.729 278.966 34.545C278.966 38.361 277.711 41.4703 275.203 43.873Z" fill="#111719"/>
<path d="M4.645 105V73.995H24.04V79.8H11.26V86.865H21.385V92.625H11.26V105H4.645ZM36.1858 99.24C37.5358 99.24 38.6608 98.805 39.5608 97.935C40.4908 97.035 40.9558 95.865 40.9558 94.425C40.9558 93.045 40.4908 91.905 39.5608 91.005C38.6308 90.105 37.5058 89.655 36.1858 89.655C34.8658 89.655 33.7408 90.105 32.8108 91.005C31.9108 91.905 31.4608 93.045 31.4608 94.425C31.4608 95.865 31.9108 97.035 32.8108 97.935C33.7408 98.805 34.8658 99.24 36.1858 99.24ZM43.9258 102.345C41.8258 104.355 39.2458 105.36 36.1858 105.36C33.1258 105.36 30.5458 104.355 28.4458 102.345C26.3458 100.305 25.2958 97.665 25.2958 94.425C25.2958 91.185 26.3458 88.56 28.4458 86.55C30.5458 84.54 33.1258 83.535 36.1858 83.535C39.2458 83.535 41.8258 84.54 43.9258 86.55C46.0558 88.56 47.1208 91.185 47.1208 94.425C47.1208 97.665 46.0558 100.305 43.9258 102.345ZM61.2346 99.24C62.5846 99.24 63.7096 98.805 64.6096 97.935C65.5396 97.035 66.0046 95.865 66.0046 94.425C66.0046 93.045 65.5396 91.905 64.6096 91.005C63.6796 90.105 62.5546 89.655 61.2346 89.655C59.9146 89.655 58.7896 90.105 57.8596 91.005C56.9596 91.905 56.5096 93.045 56.5096 94.425C56.5096 95.865 56.9596 97.035 57.8596 97.935C58.7896 98.805 59.9146 99.24 61.2346 99.24ZM68.9746 102.345C66.8746 104.355 64.2946 105.36 61.2346 105.36C58.1746 105.36 55.5946 104.355 53.4946 102.345C51.3946 100.305 50.3446 97.665 50.3446 94.425C50.3446 91.185 51.3946 88.56 53.4946 86.55C55.5946 84.54 58.1746 83.535 61.2346 83.535C64.2946 83.535 66.8746 84.54 68.9746 86.55C71.1046 88.56 72.1696 91.185 72.1696 94.425C72.1696 97.665 71.1046 100.305 68.9746 102.345ZM91.6384 94.425C91.6384 92.895 91.1584 91.68 90.1984 90.78C89.2684 89.88 88.1284 89.43 86.7784 89.43C85.4284 89.43 84.2734 89.895 83.3134 90.825C82.3834 91.755 81.9184 92.955 81.9184 94.425C81.9184 95.955 82.3834 97.185 83.3134 98.115C84.2734 99.045 85.4284 99.51 86.7784 99.51C88.1284 99.51 89.2684 99.03 90.1984 98.07C91.1584 97.11 91.6384 95.895 91.6384 94.425ZM97.9834 105H91.7734V102.39C91.2634 103.35 90.4384 104.1 89.2984 104.64C88.1884 105.18 86.9584 105.45 85.6084 105.45C82.8184 105.45 80.4184 104.445 78.4084 102.435C76.4284 100.395 75.4384 97.77 75.4384 94.56C75.4384 91.29 76.4284 88.635 78.4084 86.595C80.4184 84.555 82.8184 83.535 85.6084 83.535C86.9584 83.535 88.1884 83.805 89.2984 84.345C90.4384 84.885 91.2634 85.62 91.7734 86.55V72.555H97.9834V105ZM122.084 73.995H128.744V105H122.084V92.535H111.059V105H104.489V73.995H111.059V86.64H122.084V73.995ZM148.821 95.1V83.985H155.076V105H148.821V102.12C148.281 103.14 147.501 103.95 146.481 104.55C145.461 105.15 144.426 105.45 143.376 105.45C140.916 105.45 138.906 104.685 137.346 103.155C135.816 101.625 135.051 99.42 135.051 96.54V83.985H141.306V95.19C141.306 96.69 141.696 97.77 142.476 98.43C143.256 99.06 144.111 99.375 145.041 99.375C146.121 99.375 147.021 99.03 147.741 98.34C148.461 97.65 148.821 96.57 148.821 95.1ZM167.198 94.425C167.198 95.895 167.663 97.11 168.593 98.07C169.553 99.03 170.708 99.51 172.058 99.51C173.408 99.51 174.548 99.045 175.478 98.115C176.438 97.185 176.918 95.955 176.918 94.425C176.918 92.955 176.438 91.755 175.478 90.825C174.548 89.895 173.408 89.43 172.058 89.43C170.708 89.43 169.553 89.88 168.593 90.78C167.663 91.68 167.198 92.895 167.198 94.425ZM167.063 105H160.853V72.555H167.063V86.55C167.573 85.62 168.383 84.885 169.493 84.345C170.633 83.805 171.878 83.535 173.228 83.535C176.018 83.535 178.403 84.555 180.383 86.595C182.393 88.635 183.398 91.29 183.398 94.56C183.398 97.77 182.393 100.395 180.383 102.435C178.403 104.445 176.018 105.45 173.228 105.45C171.878 105.45 170.633 105.18 169.493 104.64C168.383 104.1 167.573 103.35 167.063 102.39V105Z" fill="#FE724C"/>
<path opacity="0.87" d="M9.516 148H7.788V142.294L3.09 135.598H5.088L8.652 140.62L12.252 135.598H14.268L9.516 142.294V148ZM20.6851 146.956C19.8331 147.772 18.7951 148.18 17.5711 148.18C16.3471 148.18 15.3091 147.772 14.4571 146.956C13.6051 146.14 13.1791 145.078 13.1791 143.77C13.1791 142.474 13.5991 141.424 14.4391 140.62C15.2911 139.816 16.3351 139.414 17.5711 139.414C18.8071 139.414 19.8511 139.816 20.7031 140.62C21.5551 141.424 21.9811 142.474 21.9811 143.77C21.9811 145.066 21.5491 146.128 20.6851 146.956ZM15.5911 145.822C16.1311 146.338 16.7911 146.596 17.5711 146.596C18.3511 146.596 19.0051 146.338 19.5331 145.822C20.0731 145.294 20.3431 144.61 20.3431 143.77C20.3431 142.942 20.0731 142.276 19.5331 141.772C19.0051 141.268 18.3511 141.016 17.5711 141.016C16.7911 141.016 16.1311 141.268 15.5911 141.772C15.0631 142.276 14.7991 142.942 14.7991 143.77C14.7991 144.61 15.0631 145.294 15.5911 145.822ZM29.903 144.13V139.594H31.541V148H29.903V146.74C29.663 147.208 29.297 147.568 28.805 147.82C28.313 148.06 27.809 148.18 27.293 148.18C26.249 148.18 25.445 147.856 24.881 147.208C24.317 146.56 24.041 145.642 24.053 144.454V139.594H25.691V144.346C25.691 145.042 25.853 145.588 26.177 145.984C26.501 146.38 26.951 146.578 27.527 146.578C28.199 146.578 28.763 146.38 29.219 145.984C29.675 145.588 29.903 144.97 29.903 144.13ZM35.9064 144.94V148H34.2684V139.594H35.9064V141.484C36.3144 140.104 37.0944 139.414 38.2464 139.414C38.9064 139.414 39.3924 139.522 39.7044 139.738L39.4524 141.268C39.0564 141.076 38.6424 140.98 38.2104 140.98C37.4424 140.98 36.8664 141.346 36.4824 142.078C36.0984 142.798 35.9064 143.752 35.9064 144.94ZM50.2382 135.022V136.588H49.3202C48.2522 136.588 47.7302 137.308 47.7542 138.748V139.594H49.6982V140.98H47.7542V148H46.0982V140.98H44.4782V139.594H46.0982V138.748C46.0982 137.584 46.3622 136.672 46.8902 136.012C47.4182 135.352 48.2282 135.022 49.3202 135.022H50.2382ZM58.0671 148V146.704C57.7911 147.172 57.3831 147.538 56.8431 147.802C56.3031 148.054 55.7271 148.18 55.1151 148.18C53.9271 148.18 52.9191 147.772 52.0911 146.956C51.2631 146.14 50.8491 145.084 50.8491 143.788C50.8491 142.48 51.2631 141.424 52.0911 140.62C52.9191 139.816 53.9271 139.414 55.1151 139.414C55.7271 139.414 56.3031 139.54 56.8431 139.792C57.3951 140.044 57.8031 140.398 58.0671 140.854V139.594H59.6871V148H58.0671ZM58.0491 143.77C58.0491 142.918 57.7671 142.246 57.2031 141.754C56.6391 141.262 55.9911 141.016 55.2591 141.016C54.4791 141.016 53.8251 141.274 53.2971 141.79C52.7811 142.294 52.5231 142.954 52.5231 143.77C52.5231 144.586 52.7871 145.258 53.3151 145.786C53.8431 146.314 54.4911 146.578 55.2591 146.578C56.0391 146.578 56.6991 146.326 57.2391 145.822C57.7791 145.318 58.0491 144.634 58.0491 143.77ZM61.3665 139.594H63.0945L65.6505 145.912L68.1885 139.594H69.9345L66.4245 148H66.4425H64.8585L61.3665 139.594ZM78.359 146.956C77.507 147.772 76.469 148.18 75.245 148.18C74.021 148.18 72.983 147.772 72.131 146.956C71.279 146.14 70.853 145.078 70.853 143.77C70.853 142.474 71.273 141.424 72.113 140.62C72.965 139.816 74.009 139.414 75.245 139.414C76.481 139.414 77.525 139.816 78.377 140.62C79.229 141.424 79.655 142.474 79.655 143.77C79.655 145.066 79.223 146.128 78.359 146.956ZM73.265 145.822C73.805 146.338 74.465 146.596 75.245 146.596C76.025 146.596 76.679 146.338 77.207 145.822C77.747 145.294 78.017 144.61 78.017 143.77C78.017 142.942 77.747 142.276 77.207 141.772C76.679 141.268 76.025 141.016 75.245 141.016C74.465 141.016 73.805 141.268 73.265 141.772C72.737 142.276 72.473 142.942 72.473 143.77C72.473 144.61 72.737 145.294 73.265 145.822ZM87.5768 144.13V139.594H89.2148V148H87.5768V146.74C87.3368 147.208 86.9708 147.568 86.4788 147.82C85.9868 148.06 85.4828 148.18 84.9668 148.18C83.9228 148.18 83.1188 147.856 82.5548 147.208C81.9908 146.56 81.7148 145.642 81.7268 144.454V139.594H83.3648V144.346C83.3648 145.042 83.5268 145.588 83.8508 145.984C84.1748 146.38 84.6248 146.578 85.2008 146.578C85.8728 146.578 86.4368 146.38 86.8928 145.984C87.3488 145.588 87.5768 144.97 87.5768 144.13ZM93.5802 144.94V148H91.9422V139.594H93.5802V141.484C93.9882 140.104 94.7682 139.414 95.9202 139.414C96.5802 139.414 97.0662 139.522 97.3782 139.738L97.1262 141.268C96.7302 141.076 96.3162 140.98 95.8842 140.98C95.1162 140.98 94.5402 141.346 94.1562 142.078C93.7722 142.798 93.5802 143.752 93.5802 144.94ZM100.664 148V139.594H99.0438V148H100.664ZM99.0438 137.254C98.8278 137.05 98.7198 136.798 98.7198 136.498C98.7198 136.198 98.8278 135.946 99.0438 135.742C99.2718 135.538 99.5418 135.436 99.8538 135.436C100.166 135.436 100.43 135.538 100.646 135.742C100.874 135.946 100.988 136.198 100.988 136.498C100.988 136.798 100.874 137.05 100.646 137.254C100.43 137.458 100.166 137.56 99.8538 137.56C99.5418 137.56 99.2718 137.458 99.0438 137.254ZM105.671 139.594H107.453V140.98H105.671V148H104.033V140.98H102.521V139.594H104.033V136.426H105.671V139.594ZM110.266 143.14H115.486C115.39 142.444 115.108 141.898 114.64 141.502C114.184 141.094 113.614 140.89 112.93 140.89C112.222 140.89 111.622 141.094 111.13 141.502C110.65 141.898 110.362 142.444 110.266 143.14ZM117.106 143.77C117.106 144.082 117.1 144.298 117.088 144.418H110.266C110.362 145.114 110.656 145.672 111.148 146.092C111.652 146.5 112.264 146.704 112.984 146.704C113.5 146.704 113.974 146.59 114.406 146.362C114.838 146.134 115.168 145.816 115.396 145.408C115.552 145.468 115.792 145.564 116.116 145.696C116.44 145.816 116.668 145.9 116.8 145.948C116.452 146.668 115.93 147.22 115.234 147.604C114.538 147.988 113.77 148.18 112.93 148.18C111.706 148.18 110.68 147.772 109.852 146.956C109.036 146.14 108.628 145.078 108.628 143.77C108.628 142.462 109.036 141.412 109.852 140.62C110.68 139.816 111.706 139.414 112.93 139.414C114.142 139.414 115.138 139.816 115.918 140.62C116.71 141.412 117.106 142.462 117.106 143.77ZM128.496 135.022V136.588H127.578C126.51 136.588 125.988 137.308 126.012 138.748V139.594H127.956V140.98H126.012V148H124.356V140.98H122.736V139.594H124.356V138.748C124.356 137.584 124.62 136.672 125.148 136.012C125.676 135.352 126.486 135.022 127.578 135.022H128.496ZM136.613 146.956C135.761 147.772 134.723 148.18 133.499 148.18C132.275 148.18 131.237 147.772 130.385 146.956C129.533 146.14 129.107 145.078 129.107 143.77C129.107 142.474 129.527 141.424 130.367 140.62C131.219 139.816 132.263 139.414 133.499 139.414C134.735 139.414 135.779 139.816 136.631 140.62C137.483 141.424 137.909 142.474 137.909 143.77C137.909 145.066 137.477 146.128 136.613 146.956ZM131.519 145.822C132.059 146.338 132.719 146.596 133.499 146.596C134.279 146.596 134.933 146.338 135.461 145.822C136.001 145.294 136.271 144.61 136.271 143.77C136.271 142.942 136.001 142.276 135.461 141.772C134.933 141.268 134.279 141.016 133.499 141.016C132.719 141.016 132.059 141.268 131.519 141.772C130.991 142.276 130.727 142.942 130.727 143.77C130.727 144.61 130.991 145.294 131.519 145.822ZM147.037 146.956C146.185 147.772 145.147 148.18 143.923 148.18C142.699 148.18 141.661 147.772 140.809 146.956C139.957 146.14 139.531 145.078 139.531 143.77C139.531 142.474 139.951 141.424 140.791 140.62C141.643 139.816 142.687 139.414 143.923 139.414C145.159 139.414 146.203 139.816 147.055 140.62C147.907 141.424 148.333 142.474 148.333 143.77C148.333 145.066 147.901 146.128 147.037 146.956ZM141.943 145.822C142.483 146.338 143.143 146.596 143.923 146.596C144.703 146.596 145.357 146.338 145.885 145.822C146.425 145.294 146.695 144.61 146.695 143.77C146.695 142.942 146.425 142.276 145.885 141.772C145.357 141.268 144.703 141.016 143.923 141.016C143.143 141.016 142.483 141.268 141.943 141.772C141.415 142.276 141.151 142.942 141.151 143.77C141.151 144.61 141.415 145.294 141.943 145.822ZM157.155 148V146.704C156.879 147.172 156.471 147.538 155.931 147.802C155.391 148.054 154.815 148.18 154.203 148.18C153.015 148.18 152.007 147.772 151.179 146.956C150.363 146.14 149.955 145.084 149.955 143.788C149.955 142.48 150.363 141.424 151.179 140.62C151.995 139.816 152.997 139.414 154.185 139.414C154.821 139.414 155.403 139.54 155.931 139.792C156.471 140.032 156.879 140.386 157.155 140.854V135.022H158.793V148H157.155ZM156.309 145.822C156.861 145.306 157.137 144.622 157.137 143.77C157.137 142.918 156.855 142.246 156.291 141.754C155.727 141.262 155.079 141.016 154.347 141.016C153.579 141.016 152.931 141.274 152.403 141.79C151.887 142.294 151.629 142.954 151.629 143.77C151.629 144.586 151.887 145.258 152.403 145.786C152.931 146.314 153.579 146.578 154.347 146.578C155.115 146.578 155.769 146.326 156.309 145.822ZM163.442 144.292C162.638 144.076 162.044 143.752 161.66 143.32C161.276 142.888 161.12 142.3 161.192 141.556C161.252 140.944 161.564 140.434 162.128 140.026C162.692 139.618 163.352 139.414 164.108 139.414C164.888 139.414 165.548 139.612 166.088 140.008C166.64 140.392 166.952 140.986 167.024 141.79H165.458C165.41 141.49 165.26 141.256 165.008 141.088C164.768 140.92 164.48 140.836 164.144 140.836C163.832 140.836 163.556 140.908 163.316 141.052C163.088 141.184 162.944 141.364 162.884 141.592C162.812 141.856 162.818 142.078 162.902 142.258C163.034 142.534 163.364 142.75 163.892 142.906L165.134 143.212C166.586 143.572 167.312 144.388 167.312 145.66C167.312 146.416 166.994 147.028 166.358 147.496C165.734 147.952 164.966 148.18 164.054 148.18C163.25 148.18 162.53 147.934 161.894 147.442C161.27 146.95 160.946 146.296 160.922 145.48H162.416C162.488 145.924 162.716 146.242 163.1 146.434C163.472 146.662 163.916 146.758 164.432 146.722C164.816 146.698 165.122 146.584 165.35 146.38C165.578 146.176 165.698 145.924 165.71 145.624C165.722 145.336 165.626 145.108 165.422 144.94C165.218 144.772 164.942 144.646 164.594 144.562L163.442 144.292ZM180.762 148V146.704C180.486 147.172 180.078 147.538 179.538 147.802C178.998 148.054 178.422 148.18 177.81 148.18C176.622 148.18 175.614 147.772 174.786 146.956C173.97 146.14 173.562 145.084 173.562 143.788C173.562 142.48 173.97 141.424 174.786 140.62C175.602 139.816 176.604 139.414 177.792 139.414C178.428 139.414 179.01 139.54 179.538 139.792C180.078 140.032 180.486 140.386 180.762 140.854V135.022H182.4V148H180.762ZM179.916 145.822C180.468 145.306 180.744 144.622 180.744 143.77C180.744 142.918 180.462 142.246 179.898 141.754C179.334 141.262 178.686 141.016 177.954 141.016C177.186 141.016 176.538 141.274 176.01 141.79C175.494 142.294 175.236 142.954 175.236 143.77C175.236 144.586 175.494 145.258 176.01 145.786C176.538 146.314 177.186 146.578 177.954 146.578C178.722 146.578 179.376 146.326 179.916 145.822ZM186.221 143.14H191.441C191.345 142.444 191.063 141.898 190.595 141.502C190.139 141.094 189.569 140.89 188.885 140.89C188.177 140.89 187.577 141.094 187.085 141.502C186.605 141.898 186.317 142.444 186.221 143.14ZM193.061 143.77C193.061 144.082 193.055 144.298 193.043 144.418H186.221C186.317 145.114 186.611 145.672 187.103 146.092C187.607 146.5 188.219 146.704 188.939 146.704C189.455 146.704 189.929 146.59 190.361 146.362C190.793 146.134 191.123 145.816 191.351 145.408C191.507 145.468 191.747 145.564 192.071 145.696C192.395 145.816 192.623 145.9 192.755 145.948C192.407 146.668 191.885 147.22 191.189 147.604C190.493 147.988 189.725 148.18 188.885 148.18C187.661 148.18 186.635 147.772 185.807 146.956C184.991 146.14 184.583 145.078 184.583 143.77C184.583 142.462 184.991 141.412 185.807 140.62C186.635 139.816 187.661 139.414 188.885 139.414C190.097 139.414 191.093 139.816 191.873 140.62C192.665 141.412 193.061 142.462 193.061 143.77ZM195.143 135.022H196.781V148H195.143V135.022ZM201.14 148V139.594H199.52V148H201.14ZM199.52 137.254C199.304 137.05 199.196 136.798 199.196 136.498C199.196 136.198 199.304 135.946 199.52 135.742C199.748 135.538 200.018 135.436 200.33 135.436C200.642 135.436 200.906 135.538 201.122 135.742C201.35 135.946 201.464 136.198 201.464 136.498C201.464 136.798 201.35 137.05 201.122 137.254C200.906 137.458 200.642 137.56 200.33 137.56C200.018 137.56 199.748 137.458 199.52 137.254ZM202.818 139.594H204.546L207.102 145.912L209.64 139.594H211.386L207.876 148H207.894H206.31L202.818 139.594ZM213.942 143.14H219.162C219.066 142.444 218.784 141.898 218.316 141.502C217.86 141.094 217.29 140.89 216.606 140.89C215.898 140.89 215.298 141.094 214.806 141.502C214.326 141.898 214.038 142.444 213.942 143.14ZM220.782 143.77C220.782 144.082 220.776 144.298 220.764 144.418H213.942C214.038 145.114 214.332 145.672 214.824 146.092C215.328 146.5 215.94 146.704 216.66 146.704C217.176 146.704 217.65 146.59 218.082 146.362C218.514 146.134 218.844 145.816 219.072 145.408C219.228 145.468 219.468 145.564 219.792 145.696C220.116 145.816 220.344 145.9 220.476 145.948C220.128 146.668 219.606 147.22 218.91 147.604C218.214 147.988 217.446 148.18 216.606 148.18C215.382 148.18 214.356 147.772 213.528 146.956C212.712 146.14 212.304 145.078 212.304 143.77C212.304 142.462 212.712 141.412 213.528 140.62C214.356 139.816 215.382 139.414 216.606 139.414C217.818 139.414 218.814 139.816 219.594 140.62C220.386 141.412 220.782 142.462 220.782 143.77ZM224.502 144.94V148H222.864V139.594H224.502V141.484C224.91 140.104 225.69 139.414 226.842 139.414C227.502 139.414 227.988 139.522 228.3 139.738L228.048 141.268C227.652 141.076 227.238 140.98 226.806 140.98C226.038 140.98 225.462 141.346 225.078 142.078C224.694 142.798 224.502 143.752 224.502 144.94ZM230.835 143.14H236.055C235.959 142.444 235.677 141.898 235.209 141.502C234.753 141.094 234.183 140.89 233.499 140.89C232.791 140.89 232.191 141.094 231.699 141.502C231.219 141.898 230.931 142.444 230.835 143.14ZM237.675 143.77C237.675 144.082 237.669 144.298 237.657 144.418H230.835C230.931 145.114 231.225 145.672 231.717 146.092C232.221 146.5 232.833 146.704 233.553 146.704C234.069 146.704 234.543 146.59 234.975 146.362C235.407 146.134 235.737 145.816 235.965 145.408C236.121 145.468 236.361 145.564 236.685 145.696C237.009 145.816 237.237 145.9 237.369 145.948C237.021 146.668 236.499 147.22 235.803 147.604C235.107 147.988 234.339 148.18 233.499 148.18C232.275 148.18 231.249 147.772 230.421 146.956C229.605 146.14 229.197 145.078 229.197 143.77C229.197 142.462 229.605 141.412 230.421 140.62C231.249 139.816 232.275 139.414 233.499 139.414C234.711 139.414 235.707 139.816 236.487 140.62C237.279 141.412 237.675 142.462 237.675 143.77ZM246.399 148V146.704C246.123 147.172 245.715 147.538 245.175 147.802C244.635 148.054 244.059 148.18 243.447 148.18C242.259 148.18 241.251 147.772 240.423 146.956C239.607 146.14 239.199 145.084 239.199 143.788C239.199 142.48 239.607 141.424 240.423 140.62C241.239 139.816 242.241 139.414 243.429 139.414C244.065 139.414 244.647 139.54 245.175 139.792C245.715 140.032 246.123 140.386 246.399 140.854V135.022H248.037V148H246.399ZM245.553 145.822C246.105 145.306 246.381 144.622 246.381 143.77C246.381 142.918 246.099 142.246 245.535 141.754C244.971 141.262 244.323 141.016 243.591 141.016C242.823 141.016 242.175 141.274 241.647 141.79C241.131 142.294 240.873 142.954 240.873 143.77C240.873 144.586 241.131 145.258 241.647 145.786C242.175 146.314 242.823 146.578 243.591 146.578C244.359 146.578 245.013 146.326 245.553 145.822ZM9.246 162.022V163.588H8.328C7.26 163.588 6.738 164.308 6.762 165.748V166.594H8.706V167.98H6.762V175H5.106V167.98H3.486V166.594H5.106V165.748C5.106 164.584 5.37 163.672 5.898 163.012C6.426 162.352 7.236 162.022 8.328 162.022H9.246ZM17.0749 175V173.704C16.7989 174.172 16.3909 174.538 15.8509 174.802C15.3109 175.054 14.7349 175.18 14.1229 175.18C12.9349 175.18 11.9269 174.772 11.0989 173.956C10.2709 173.14 9.85688 172.084 9.85688 170.788C9.85688 169.48 10.2709 168.424 11.0989 167.62C11.9269 166.816 12.9349 166.414 14.1229 166.414C14.7349 166.414 15.3109 166.54 15.8509 166.792C16.4029 167.044 16.8109 167.398 17.0749 167.854V166.594H18.6949V175H17.0749ZM17.0569 170.77C17.0569 169.918 16.7749 169.246 16.2109 168.754C15.6469 168.262 14.9989 168.016 14.2669 168.016C13.4869 168.016 12.8329 168.274 12.3049 168.79C11.7889 169.294 11.5309 169.954 11.5309 170.77C11.5309 171.586 11.7949 172.258 12.3229 172.786C12.8509 173.314 13.4989 173.578 14.2669 173.578C15.0469 173.578 15.7069 173.326 16.2469 172.822C16.7869 172.318 17.0569 171.634 17.0569 170.77ZM23.3444 171.292C22.5404 171.076 21.9464 170.752 21.5624 170.32C21.1784 169.888 21.0224 169.3 21.0944 168.556C21.1544 167.944 21.4664 167.434 22.0304 167.026C22.5944 166.618 23.2544 166.414 24.0104 166.414C24.7904 166.414 25.4504 166.612 25.9904 167.008C26.5424 167.392 26.8544 167.986 26.9264 168.79H25.3604C25.3124 168.49 25.1624 168.256 24.9104 168.088C24.6704 167.92 24.3824 167.836 24.0464 167.836C23.7344 167.836 23.4584 167.908 23.2184 168.052C22.9904 168.184 22.8464 168.364 22.7864 168.592C22.7144 168.856 22.7204 169.078 22.8044 169.258C22.9364 169.534 23.2664 169.75 23.7944 169.906L25.0364 170.212C26.4884 170.572 27.2144 171.388 27.2144 172.66C27.2144 173.416 26.8964 174.028 26.2604 174.496C25.6364 174.952 24.8684 175.18 23.9564 175.18C23.1524 175.18 22.4324 174.934 21.7964 174.442C21.1724 173.95 20.8484 173.296 20.8244 172.48H22.3184C22.3904 172.924 22.6184 173.242 23.0024 173.434C23.3744 173.662 23.8184 173.758 24.3344 173.722C24.7184 173.698 25.0244 173.584 25.2524 173.38C25.4804 173.176 25.6004 172.924 25.6124 172.624C25.6244 172.336 25.5284 172.108 25.3244 171.94C25.1204 171.772 24.8444 171.646 24.4964 171.562L23.3444 171.292ZM31.6145 166.594H33.3965V167.98H31.6145V175H29.9765V167.98H28.4645V166.594H29.9765V163.426H31.6145V166.594ZM46.2546 175V173.704C45.9786 174.172 45.5706 174.538 45.0306 174.802C44.4906 175.054 43.9146 175.18 43.3026 175.18C42.1146 175.18 41.1066 174.772 40.2786 173.956C39.4506 173.14 39.0366 172.084 39.0366 170.788C39.0366 169.48 39.4506 168.424 40.2786 167.62C41.1066 166.816 42.1146 166.414 43.3026 166.414C43.9146 166.414 44.4906 166.54 45.0306 166.792C45.5826 167.044 45.9906 167.398 46.2546 167.854V166.594H47.8746V175H46.2546ZM46.2366 170.77C46.2366 169.918 45.9546 169.246 45.3906 168.754C44.8266 168.262 44.1786 168.016 43.4466 168.016C42.6666 168.016 42.0126 168.274 41.4846 168.79C40.9686 169.294 40.7106 169.954 40.7106 170.77C40.7106 171.586 40.9746 172.258 41.5026 172.786C42.0306 173.314 42.6786 173.578 43.4466 173.578C44.2266 173.578 44.8866 173.326 45.4266 172.822C45.9666 172.318 46.2366 171.634 46.2366 170.77ZM52.884 166.594H54.666V167.98H52.884V175H51.246V167.98H49.734V166.594H51.246V163.426H52.884V166.594ZM62.6751 179.086H60.9651L62.7291 174.748L59.3631 166.594H61.1091L63.6291 172.678L66.1491 166.594H67.8951L62.6751 179.086ZM76.3199 173.956C75.4679 174.772 74.4299 175.18 73.2059 175.18C71.9819 175.18 70.9439 174.772 70.0919 173.956C69.2399 173.14 68.8139 172.078 68.8139 170.77C68.8139 169.474 69.2339 168.424 70.0739 167.62C70.9259 166.816 71.9699 166.414 73.2059 166.414C74.4419 166.414 75.4859 166.816 76.3379 167.62C77.1899 168.424 77.6159 169.474 77.6159 170.77C77.6159 172.066 77.1839 173.128 76.3199 173.956ZM71.2259 172.822C71.7659 173.338 72.4259 173.596 73.2059 173.596C73.9859 173.596 74.6399 173.338 75.1679 172.822C75.7079 172.294 75.9779 171.61 75.9779 170.77C75.9779 169.942 75.7079 169.276 75.1679 168.772C74.6399 168.268 73.9859 168.016 73.2059 168.016C72.4259 168.016 71.7659 168.268 71.2259 168.772C70.6979 169.276 70.4339 169.942 70.4339 170.77C70.4339 171.61 70.6979 172.294 71.2259 172.822ZM85.5377 171.13V166.594H87.1757V175H85.5377V173.74C85.2977 174.208 84.9317 174.568 84.4397 174.82C83.9477 175.06 83.4437 175.18 82.9277 175.18C81.8837 175.18 81.0797 174.856 80.5157 174.208C79.9517 173.56 79.6757 172.642 79.6877 171.454V166.594H81.3257V171.346C81.3257 172.042 81.4877 172.588 81.8117 172.984C82.1357 173.38 82.5857 173.578 83.1617 173.578C83.8337 173.578 84.3977 173.38 84.8537 172.984C85.3097 172.588 85.5377 171.97 85.5377 171.13ZM91.5412 171.94V175H89.9032V166.594H91.5412V168.484C91.9492 167.104 92.7292 166.414 93.8812 166.414C94.5412 166.414 95.0272 166.522 95.3392 166.738L95.0872 168.268C94.6912 168.076 94.2772 167.98 93.8452 167.98C93.0772 167.98 92.5012 168.346 92.1172 169.078C91.7332 169.798 91.5412 170.752 91.5412 171.94ZM107.883 175V173.704C107.607 174.172 107.199 174.538 106.659 174.802C106.119 175.054 105.543 175.18 104.931 175.18C103.743 175.18 102.735 174.772 101.907 173.956C101.091 173.14 100.683 172.084 100.683 170.788C100.683 169.48 101.091 168.424 101.907 167.62C102.723 166.816 103.725 166.414 104.913 166.414C105.549 166.414 106.131 166.54 106.659 166.792C107.199 167.032 107.607 167.386 107.883 167.854V162.022H109.521V175H107.883ZM107.037 172.822C107.589 172.306 107.865 171.622 107.865 170.77C107.865 169.918 107.583 169.246 107.019 168.754C106.455 168.262 105.807 168.016 105.075 168.016C104.307 168.016 103.659 168.274 103.131 168.79C102.615 169.294 102.357 169.954 102.357 170.77C102.357 171.586 102.615 172.258 103.131 172.786C103.659 173.314 104.307 173.578 105.075 173.578C105.843 173.578 106.497 173.326 107.037 172.822ZM119.211 173.956C118.359 174.772 117.321 175.18 116.097 175.18C114.873 175.18 113.835 174.772 112.983 173.956C112.131 173.14 111.705 172.078 111.705 170.77C111.705 169.474 112.125 168.424 112.965 167.62C113.817 166.816 114.861 166.414 116.097 166.414C117.333 166.414 118.377 166.816 119.229 167.62C120.081 168.424 120.507 169.474 120.507 170.77C120.507 172.066 120.075 173.128 119.211 173.956ZM114.117 172.822C114.657 173.338 115.317 173.596 116.097 173.596C116.877 173.596 117.531 173.338 118.059 172.822C118.599 172.294 118.869 171.61 118.869 170.77C118.869 169.942 118.599 169.276 118.059 168.772C117.531 168.268 116.877 168.016 116.097 168.016C115.317 168.016 114.657 168.268 114.117 168.772C113.589 169.276 113.325 169.942 113.325 170.77C113.325 171.61 113.589 172.294 114.117 172.822ZM129.634 173.956C128.782 174.772 127.744 175.18 126.52 175.18C125.296 175.18 124.258 174.772 123.406 173.956C122.554 173.14 122.128 172.078 122.128 170.77C122.128 169.474 122.548 168.424 123.388 167.62C124.24 166.816 125.284 166.414 126.52 166.414C127.756 166.414 128.8 166.816 129.652 167.62C130.504 168.424 130.93 169.474 130.93 170.77C130.93 172.066 130.498 173.128 129.634 173.956ZM124.54 172.822C125.08 173.338 125.74 173.596 126.52 173.596C127.3 173.596 127.954 173.338 128.482 172.822C129.022 172.294 129.292 171.61 129.292 170.77C129.292 169.942 129.022 169.276 128.482 168.772C127.954 168.268 127.3 168.016 126.52 168.016C125.74 168.016 125.08 168.268 124.54 168.772C124.012 169.276 123.748 169.942 123.748 170.77C123.748 171.61 124.012 172.294 124.54 172.822ZM134.748 171.94V175H133.11V166.594H134.748V168.484C135.156 167.104 135.936 166.414 137.088 166.414C137.748 166.414 138.234 166.522 138.546 166.738L138.294 168.268C137.898 168.076 137.484 167.98 137.052 167.98C136.284 167.98 135.708 168.346 135.324 169.078C134.94 169.798 134.748 170.752 134.748 171.94ZM139.373 174.874C139.145 174.658 139.031 174.388 139.031 174.064C139.031 173.74 139.145 173.47 139.373 173.254C139.601 173.038 139.877 172.93 140.201 172.93C140.525 172.93 140.801 173.038 141.029 173.254C141.269 173.47 141.389 173.74 141.389 174.064C141.389 174.388 141.269 174.658 141.029 174.874C140.801 175.078 140.525 175.18 140.201 175.18C139.877 175.18 139.601 175.078 139.373 174.874Z" fill="#30384F"/>
</svg>
